%TF.GenerationSoftware,KiCad,Pcbnew,8.0.2*%
%TF.CreationDate,2024-05-04T20:25:50+02:00*%
%TF.ProjectId,led-strip-connector,6c65642d-7374-4726-9970-2d636f6e6e65,rev?*%
%TF.SameCoordinates,Original*%
%TF.FileFunction,Legend,Top*%
%TF.FilePolarity,Positive*%
%FSLAX46Y46*%
G04 Gerber Fmt 4.6, Leading zero omitted, Abs format (unit mm)*
G04 Created by KiCad (PCBNEW 8.0.2) date 2024-05-04 20:25:50*
%MOMM*%
%LPD*%
G01*
G04 APERTURE LIST*
%ADD10C,0.150000*%
%ADD11C,0.120000*%
G04 APERTURE END LIST*
D10*
X141848095Y-96944819D02*
X141848095Y-97754342D01*
X141848095Y-97754342D02*
X141895714Y-97849580D01*
X141895714Y-97849580D02*
X141943333Y-97897200D01*
X141943333Y-97897200D02*
X142038571Y-97944819D01*
X142038571Y-97944819D02*
X142229047Y-97944819D01*
X142229047Y-97944819D02*
X142324285Y-97897200D01*
X142324285Y-97897200D02*
X142371904Y-97849580D01*
X142371904Y-97849580D02*
X142419523Y-97754342D01*
X142419523Y-97754342D02*
X142419523Y-96944819D01*
X143419523Y-97944819D02*
X142848095Y-97944819D01*
X143133809Y-97944819D02*
X143133809Y-96944819D01*
X143133809Y-96944819D02*
X143038571Y-97087676D01*
X143038571Y-97087676D02*
X142943333Y-97182914D01*
X142943333Y-97182914D02*
X142848095Y-97230533D01*
X131688095Y-87737200D02*
X131830952Y-87784819D01*
X131830952Y-87784819D02*
X132069047Y-87784819D01*
X132069047Y-87784819D02*
X132164285Y-87737200D01*
X132164285Y-87737200D02*
X132211904Y-87689580D01*
X132211904Y-87689580D02*
X132259523Y-87594342D01*
X132259523Y-87594342D02*
X132259523Y-87499104D01*
X132259523Y-87499104D02*
X132211904Y-87403866D01*
X132211904Y-87403866D02*
X132164285Y-87356247D01*
X132164285Y-87356247D02*
X132069047Y-87308628D01*
X132069047Y-87308628D02*
X131878571Y-87261009D01*
X131878571Y-87261009D02*
X131783333Y-87213390D01*
X131783333Y-87213390D02*
X131735714Y-87165771D01*
X131735714Y-87165771D02*
X131688095Y-87070533D01*
X131688095Y-87070533D02*
X131688095Y-86975295D01*
X131688095Y-86975295D02*
X131735714Y-86880057D01*
X131735714Y-86880057D02*
X131783333Y-86832438D01*
X131783333Y-86832438D02*
X131878571Y-86784819D01*
X131878571Y-86784819D02*
X132116666Y-86784819D01*
X132116666Y-86784819D02*
X132259523Y-86832438D01*
X132592857Y-86784819D02*
X133211904Y-86784819D01*
X133211904Y-86784819D02*
X132878571Y-87165771D01*
X132878571Y-87165771D02*
X133021428Y-87165771D01*
X133021428Y-87165771D02*
X133116666Y-87213390D01*
X133116666Y-87213390D02*
X133164285Y-87261009D01*
X133164285Y-87261009D02*
X133211904Y-87356247D01*
X133211904Y-87356247D02*
X133211904Y-87594342D01*
X133211904Y-87594342D02*
X133164285Y-87689580D01*
X133164285Y-87689580D02*
X133116666Y-87737200D01*
X133116666Y-87737200D02*
X133021428Y-87784819D01*
X133021428Y-87784819D02*
X132735714Y-87784819D01*
X132735714Y-87784819D02*
X132640476Y-87737200D01*
X132640476Y-87737200D02*
X132592857Y-87689580D01*
X151126904Y-112232438D02*
X151031666Y-112184819D01*
X151031666Y-112184819D02*
X150888809Y-112184819D01*
X150888809Y-112184819D02*
X150745952Y-112232438D01*
X150745952Y-112232438D02*
X150650714Y-112327676D01*
X150650714Y-112327676D02*
X150603095Y-112422914D01*
X150603095Y-112422914D02*
X150555476Y-112613390D01*
X150555476Y-112613390D02*
X150555476Y-112756247D01*
X150555476Y-112756247D02*
X150603095Y-112946723D01*
X150603095Y-112946723D02*
X150650714Y-113041961D01*
X150650714Y-113041961D02*
X150745952Y-113137200D01*
X150745952Y-113137200D02*
X150888809Y-113184819D01*
X150888809Y-113184819D02*
X150984047Y-113184819D01*
X150984047Y-113184819D02*
X151126904Y-113137200D01*
X151126904Y-113137200D02*
X151174523Y-113089580D01*
X151174523Y-113089580D02*
X151174523Y-112756247D01*
X151174523Y-112756247D02*
X150984047Y-112756247D01*
X150126905Y-80164819D02*
X150126905Y-79164819D01*
X150126905Y-79164819D02*
X150365000Y-79164819D01*
X150365000Y-79164819D02*
X150507857Y-79212438D01*
X150507857Y-79212438D02*
X150603095Y-79307676D01*
X150603095Y-79307676D02*
X150650714Y-79402914D01*
X150650714Y-79402914D02*
X150698333Y-79593390D01*
X150698333Y-79593390D02*
X150698333Y-79736247D01*
X150698333Y-79736247D02*
X150650714Y-79926723D01*
X150650714Y-79926723D02*
X150603095Y-80021961D01*
X150603095Y-80021961D02*
X150507857Y-80117200D01*
X150507857Y-80117200D02*
X150365000Y-80164819D01*
X150365000Y-80164819D02*
X150126905Y-80164819D01*
X151317381Y-79164819D02*
X151412619Y-79164819D01*
X151412619Y-79164819D02*
X151507857Y-79212438D01*
X151507857Y-79212438D02*
X151555476Y-79260057D01*
X151555476Y-79260057D02*
X151603095Y-79355295D01*
X151603095Y-79355295D02*
X151650714Y-79545771D01*
X151650714Y-79545771D02*
X151650714Y-79783866D01*
X151650714Y-79783866D02*
X151603095Y-79974342D01*
X151603095Y-79974342D02*
X151555476Y-80069580D01*
X151555476Y-80069580D02*
X151507857Y-80117200D01*
X151507857Y-80117200D02*
X151412619Y-80164819D01*
X151412619Y-80164819D02*
X151317381Y-80164819D01*
X151317381Y-80164819D02*
X151222143Y-80117200D01*
X151222143Y-80117200D02*
X151174524Y-80069580D01*
X151174524Y-80069580D02*
X151126905Y-79974342D01*
X151126905Y-79974342D02*
X151079286Y-79783866D01*
X151079286Y-79783866D02*
X151079286Y-79545771D01*
X151079286Y-79545771D02*
X151126905Y-79355295D01*
X151126905Y-79355295D02*
X151174524Y-79260057D01*
X151174524Y-79260057D02*
X151222143Y-79212438D01*
X151222143Y-79212438D02*
X151317381Y-79164819D01*
X131735714Y-79879104D02*
X132211904Y-79879104D01*
X131640476Y-80164819D02*
X131973809Y-79164819D01*
X131973809Y-79164819D02*
X132307142Y-80164819D01*
X132830952Y-79164819D02*
X132926190Y-79164819D01*
X132926190Y-79164819D02*
X133021428Y-79212438D01*
X133021428Y-79212438D02*
X133069047Y-79260057D01*
X133069047Y-79260057D02*
X133116666Y-79355295D01*
X133116666Y-79355295D02*
X133164285Y-79545771D01*
X133164285Y-79545771D02*
X133164285Y-79783866D01*
X133164285Y-79783866D02*
X133116666Y-79974342D01*
X133116666Y-79974342D02*
X133069047Y-80069580D01*
X133069047Y-80069580D02*
X133021428Y-80117200D01*
X133021428Y-80117200D02*
X132926190Y-80164819D01*
X132926190Y-80164819D02*
X132830952Y-80164819D01*
X132830952Y-80164819D02*
X132735714Y-80117200D01*
X132735714Y-80117200D02*
X132688095Y-80069580D01*
X132688095Y-80069580D02*
X132640476Y-79974342D01*
X132640476Y-79974342D02*
X132592857Y-79783866D01*
X132592857Y-79783866D02*
X132592857Y-79545771D01*
X132592857Y-79545771D02*
X132640476Y-79355295D01*
X132640476Y-79355295D02*
X132688095Y-79260057D01*
X132688095Y-79260057D02*
X132735714Y-79212438D01*
X132735714Y-79212438D02*
X132830952Y-79164819D01*
X140713095Y-119804819D02*
X140713095Y-120614342D01*
X140713095Y-120614342D02*
X140760714Y-120709580D01*
X140760714Y-120709580D02*
X140808333Y-120757200D01*
X140808333Y-120757200D02*
X140903571Y-120804819D01*
X140903571Y-120804819D02*
X141094047Y-120804819D01*
X141094047Y-120804819D02*
X141189285Y-120757200D01*
X141189285Y-120757200D02*
X141236904Y-120709580D01*
X141236904Y-120709580D02*
X141284523Y-120614342D01*
X141284523Y-120614342D02*
X141284523Y-119804819D01*
X141713095Y-120757200D02*
X141855952Y-120804819D01*
X141855952Y-120804819D02*
X142094047Y-120804819D01*
X142094047Y-120804819D02*
X142189285Y-120757200D01*
X142189285Y-120757200D02*
X142236904Y-120709580D01*
X142236904Y-120709580D02*
X142284523Y-120614342D01*
X142284523Y-120614342D02*
X142284523Y-120519104D01*
X142284523Y-120519104D02*
X142236904Y-120423866D01*
X142236904Y-120423866D02*
X142189285Y-120376247D01*
X142189285Y-120376247D02*
X142094047Y-120328628D01*
X142094047Y-120328628D02*
X141903571Y-120281009D01*
X141903571Y-120281009D02*
X141808333Y-120233390D01*
X141808333Y-120233390D02*
X141760714Y-120185771D01*
X141760714Y-120185771D02*
X141713095Y-120090533D01*
X141713095Y-120090533D02*
X141713095Y-119995295D01*
X141713095Y-119995295D02*
X141760714Y-119900057D01*
X141760714Y-119900057D02*
X141808333Y-119852438D01*
X141808333Y-119852438D02*
X141903571Y-119804819D01*
X141903571Y-119804819D02*
X142141666Y-119804819D01*
X142141666Y-119804819D02*
X142284523Y-119852438D01*
X143046428Y-120281009D02*
X143189285Y-120328628D01*
X143189285Y-120328628D02*
X143236904Y-120376247D01*
X143236904Y-120376247D02*
X143284523Y-120471485D01*
X143284523Y-120471485D02*
X143284523Y-120614342D01*
X143284523Y-120614342D02*
X143236904Y-120709580D01*
X143236904Y-120709580D02*
X143189285Y-120757200D01*
X143189285Y-120757200D02*
X143094047Y-120804819D01*
X143094047Y-120804819D02*
X142713095Y-120804819D01*
X142713095Y-120804819D02*
X142713095Y-119804819D01*
X142713095Y-119804819D02*
X143046428Y-119804819D01*
X143046428Y-119804819D02*
X143141666Y-119852438D01*
X143141666Y-119852438D02*
X143189285Y-119900057D01*
X143189285Y-119900057D02*
X143236904Y-119995295D01*
X143236904Y-119995295D02*
X143236904Y-120090533D01*
X143236904Y-120090533D02*
X143189285Y-120185771D01*
X143189285Y-120185771D02*
X143141666Y-120233390D01*
X143141666Y-120233390D02*
X143046428Y-120281009D01*
X143046428Y-120281009D02*
X142713095Y-120281009D01*
X131688095Y-92817200D02*
X131830952Y-92864819D01*
X131830952Y-92864819D02*
X132069047Y-92864819D01*
X132069047Y-92864819D02*
X132164285Y-92817200D01*
X132164285Y-92817200D02*
X132211904Y-92769580D01*
X132211904Y-92769580D02*
X132259523Y-92674342D01*
X132259523Y-92674342D02*
X132259523Y-92579104D01*
X132259523Y-92579104D02*
X132211904Y-92483866D01*
X132211904Y-92483866D02*
X132164285Y-92436247D01*
X132164285Y-92436247D02*
X132069047Y-92388628D01*
X132069047Y-92388628D02*
X131878571Y-92341009D01*
X131878571Y-92341009D02*
X131783333Y-92293390D01*
X131783333Y-92293390D02*
X131735714Y-92245771D01*
X131735714Y-92245771D02*
X131688095Y-92150533D01*
X131688095Y-92150533D02*
X131688095Y-92055295D01*
X131688095Y-92055295D02*
X131735714Y-91960057D01*
X131735714Y-91960057D02*
X131783333Y-91912438D01*
X131783333Y-91912438D02*
X131878571Y-91864819D01*
X131878571Y-91864819D02*
X132116666Y-91864819D01*
X132116666Y-91864819D02*
X132259523Y-91912438D01*
X133211904Y-92864819D02*
X132640476Y-92864819D01*
X132926190Y-92864819D02*
X132926190Y-91864819D01*
X132926190Y-91864819D02*
X132830952Y-92007676D01*
X132830952Y-92007676D02*
X132735714Y-92102914D01*
X132735714Y-92102914D02*
X132640476Y-92150533D01*
X150126905Y-82704819D02*
X150126905Y-81704819D01*
X150126905Y-81704819D02*
X150365000Y-81704819D01*
X150365000Y-81704819D02*
X150507857Y-81752438D01*
X150507857Y-81752438D02*
X150603095Y-81847676D01*
X150603095Y-81847676D02*
X150650714Y-81942914D01*
X150650714Y-81942914D02*
X150698333Y-82133390D01*
X150698333Y-82133390D02*
X150698333Y-82276247D01*
X150698333Y-82276247D02*
X150650714Y-82466723D01*
X150650714Y-82466723D02*
X150603095Y-82561961D01*
X150603095Y-82561961D02*
X150507857Y-82657200D01*
X150507857Y-82657200D02*
X150365000Y-82704819D01*
X150365000Y-82704819D02*
X150126905Y-82704819D01*
X151650714Y-82704819D02*
X151079286Y-82704819D01*
X151365000Y-82704819D02*
X151365000Y-81704819D01*
X151365000Y-81704819D02*
X151269762Y-81847676D01*
X151269762Y-81847676D02*
X151174524Y-81942914D01*
X151174524Y-81942914D02*
X151079286Y-81990533D01*
X150698333Y-108104819D02*
X150365000Y-107628628D01*
X150126905Y-108104819D02*
X150126905Y-107104819D01*
X150126905Y-107104819D02*
X150507857Y-107104819D01*
X150507857Y-107104819D02*
X150603095Y-107152438D01*
X150603095Y-107152438D02*
X150650714Y-107200057D01*
X150650714Y-107200057D02*
X150698333Y-107295295D01*
X150698333Y-107295295D02*
X150698333Y-107438152D01*
X150698333Y-107438152D02*
X150650714Y-107533390D01*
X150650714Y-107533390D02*
X150603095Y-107581009D01*
X150603095Y-107581009D02*
X150507857Y-107628628D01*
X150507857Y-107628628D02*
X150126905Y-107628628D01*
X151031667Y-107104819D02*
X151698333Y-108104819D01*
X151698333Y-107104819D02*
X151031667Y-108104819D01*
X131664286Y-95357200D02*
X131807143Y-95404819D01*
X131807143Y-95404819D02*
X132045238Y-95404819D01*
X132045238Y-95404819D02*
X132140476Y-95357200D01*
X132140476Y-95357200D02*
X132188095Y-95309580D01*
X132188095Y-95309580D02*
X132235714Y-95214342D01*
X132235714Y-95214342D02*
X132235714Y-95119104D01*
X132235714Y-95119104D02*
X132188095Y-95023866D01*
X132188095Y-95023866D02*
X132140476Y-94976247D01*
X132140476Y-94976247D02*
X132045238Y-94928628D01*
X132045238Y-94928628D02*
X131854762Y-94881009D01*
X131854762Y-94881009D02*
X131759524Y-94833390D01*
X131759524Y-94833390D02*
X131711905Y-94785771D01*
X131711905Y-94785771D02*
X131664286Y-94690533D01*
X131664286Y-94690533D02*
X131664286Y-94595295D01*
X131664286Y-94595295D02*
X131711905Y-94500057D01*
X131711905Y-94500057D02*
X131759524Y-94452438D01*
X131759524Y-94452438D02*
X131854762Y-94404819D01*
X131854762Y-94404819D02*
X132092857Y-94404819D01*
X132092857Y-94404819D02*
X132235714Y-94452438D01*
X133235714Y-95309580D02*
X133188095Y-95357200D01*
X133188095Y-95357200D02*
X133045238Y-95404819D01*
X133045238Y-95404819D02*
X132950000Y-95404819D01*
X132950000Y-95404819D02*
X132807143Y-95357200D01*
X132807143Y-95357200D02*
X132711905Y-95261961D01*
X132711905Y-95261961D02*
X132664286Y-95166723D01*
X132664286Y-95166723D02*
X132616667Y-94976247D01*
X132616667Y-94976247D02*
X132616667Y-94833390D01*
X132616667Y-94833390D02*
X132664286Y-94642914D01*
X132664286Y-94642914D02*
X132711905Y-94547676D01*
X132711905Y-94547676D02*
X132807143Y-94452438D01*
X132807143Y-94452438D02*
X132950000Y-94404819D01*
X132950000Y-94404819D02*
X133045238Y-94404819D01*
X133045238Y-94404819D02*
X133188095Y-94452438D01*
X133188095Y-94452438D02*
X133235714Y-94500057D01*
X131592857Y-84244819D02*
X131926190Y-85244819D01*
X131926190Y-85244819D02*
X132259523Y-84244819D01*
X132592857Y-84244819D02*
X132592857Y-85054342D01*
X132592857Y-85054342D02*
X132640476Y-85149580D01*
X132640476Y-85149580D02*
X132688095Y-85197200D01*
X132688095Y-85197200D02*
X132783333Y-85244819D01*
X132783333Y-85244819D02*
X132973809Y-85244819D01*
X132973809Y-85244819D02*
X133069047Y-85197200D01*
X133069047Y-85197200D02*
X133116666Y-85149580D01*
X133116666Y-85149580D02*
X133164285Y-85054342D01*
X133164285Y-85054342D02*
X133164285Y-84244819D01*
X132711904Y-81752438D02*
X132616666Y-81704819D01*
X132616666Y-81704819D02*
X132473809Y-81704819D01*
X132473809Y-81704819D02*
X132330952Y-81752438D01*
X132330952Y-81752438D02*
X132235714Y-81847676D01*
X132235714Y-81847676D02*
X132188095Y-81942914D01*
X132188095Y-81942914D02*
X132140476Y-82133390D01*
X132140476Y-82133390D02*
X132140476Y-82276247D01*
X132140476Y-82276247D02*
X132188095Y-82466723D01*
X132188095Y-82466723D02*
X132235714Y-82561961D01*
X132235714Y-82561961D02*
X132330952Y-82657200D01*
X132330952Y-82657200D02*
X132473809Y-82704819D01*
X132473809Y-82704819D02*
X132569047Y-82704819D01*
X132569047Y-82704819D02*
X132711904Y-82657200D01*
X132711904Y-82657200D02*
X132759523Y-82609580D01*
X132759523Y-82609580D02*
X132759523Y-82276247D01*
X132759523Y-82276247D02*
X132569047Y-82276247D01*
X150126905Y-105564819D02*
X150126905Y-104564819D01*
X150126905Y-104564819D02*
X150365000Y-104564819D01*
X150365000Y-104564819D02*
X150507857Y-104612438D01*
X150507857Y-104612438D02*
X150603095Y-104707676D01*
X150603095Y-104707676D02*
X150650714Y-104802914D01*
X150650714Y-104802914D02*
X150698333Y-104993390D01*
X150698333Y-104993390D02*
X150698333Y-105136247D01*
X150698333Y-105136247D02*
X150650714Y-105326723D01*
X150650714Y-105326723D02*
X150603095Y-105421961D01*
X150603095Y-105421961D02*
X150507857Y-105517200D01*
X150507857Y-105517200D02*
X150365000Y-105564819D01*
X150365000Y-105564819D02*
X150126905Y-105564819D01*
X151269762Y-104993390D02*
X151174524Y-104945771D01*
X151174524Y-104945771D02*
X151126905Y-104898152D01*
X151126905Y-104898152D02*
X151079286Y-104802914D01*
X151079286Y-104802914D02*
X151079286Y-104755295D01*
X151079286Y-104755295D02*
X151126905Y-104660057D01*
X151126905Y-104660057D02*
X151174524Y-104612438D01*
X151174524Y-104612438D02*
X151269762Y-104564819D01*
X151269762Y-104564819D02*
X151460238Y-104564819D01*
X151460238Y-104564819D02*
X151555476Y-104612438D01*
X151555476Y-104612438D02*
X151603095Y-104660057D01*
X151603095Y-104660057D02*
X151650714Y-104755295D01*
X151650714Y-104755295D02*
X151650714Y-104802914D01*
X151650714Y-104802914D02*
X151603095Y-104898152D01*
X151603095Y-104898152D02*
X151555476Y-104945771D01*
X151555476Y-104945771D02*
X151460238Y-104993390D01*
X151460238Y-104993390D02*
X151269762Y-104993390D01*
X151269762Y-104993390D02*
X151174524Y-105041009D01*
X151174524Y-105041009D02*
X151126905Y-105088628D01*
X151126905Y-105088628D02*
X151079286Y-105183866D01*
X151079286Y-105183866D02*
X151079286Y-105374342D01*
X151079286Y-105374342D02*
X151126905Y-105469580D01*
X151126905Y-105469580D02*
X151174524Y-105517200D01*
X151174524Y-105517200D02*
X151269762Y-105564819D01*
X151269762Y-105564819D02*
X151460238Y-105564819D01*
X151460238Y-105564819D02*
X151555476Y-105517200D01*
X151555476Y-105517200D02*
X151603095Y-105469580D01*
X151603095Y-105469580D02*
X151650714Y-105374342D01*
X151650714Y-105374342D02*
X151650714Y-105183866D01*
X151650714Y-105183866D02*
X151603095Y-105088628D01*
X151603095Y-105088628D02*
X151555476Y-105041009D01*
X151555476Y-105041009D02*
X151460238Y-104993390D01*
X150103095Y-109644819D02*
X150674523Y-109644819D01*
X150388809Y-110644819D02*
X150388809Y-109644819D01*
X150912619Y-109644819D02*
X151579285Y-110644819D01*
X151579285Y-109644819D02*
X150912619Y-110644819D01*
X150126905Y-87784819D02*
X150126905Y-86784819D01*
X150126905Y-86784819D02*
X150365000Y-86784819D01*
X150365000Y-86784819D02*
X150507857Y-86832438D01*
X150507857Y-86832438D02*
X150603095Y-86927676D01*
X150603095Y-86927676D02*
X150650714Y-87022914D01*
X150650714Y-87022914D02*
X150698333Y-87213390D01*
X150698333Y-87213390D02*
X150698333Y-87356247D01*
X150698333Y-87356247D02*
X150650714Y-87546723D01*
X150650714Y-87546723D02*
X150603095Y-87641961D01*
X150603095Y-87641961D02*
X150507857Y-87737200D01*
X150507857Y-87737200D02*
X150365000Y-87784819D01*
X150365000Y-87784819D02*
X150126905Y-87784819D01*
X151031667Y-86784819D02*
X151650714Y-86784819D01*
X151650714Y-86784819D02*
X151317381Y-87165771D01*
X151317381Y-87165771D02*
X151460238Y-87165771D01*
X151460238Y-87165771D02*
X151555476Y-87213390D01*
X151555476Y-87213390D02*
X151603095Y-87261009D01*
X151603095Y-87261009D02*
X151650714Y-87356247D01*
X151650714Y-87356247D02*
X151650714Y-87594342D01*
X151650714Y-87594342D02*
X151603095Y-87689580D01*
X151603095Y-87689580D02*
X151555476Y-87737200D01*
X151555476Y-87737200D02*
X151460238Y-87784819D01*
X151460238Y-87784819D02*
X151174524Y-87784819D01*
X151174524Y-87784819D02*
X151079286Y-87737200D01*
X151079286Y-87737200D02*
X151031667Y-87689580D01*
X150126905Y-100484819D02*
X150126905Y-99484819D01*
X150126905Y-99484819D02*
X150365000Y-99484819D01*
X150365000Y-99484819D02*
X150507857Y-99532438D01*
X150507857Y-99532438D02*
X150603095Y-99627676D01*
X150603095Y-99627676D02*
X150650714Y-99722914D01*
X150650714Y-99722914D02*
X150698333Y-99913390D01*
X150698333Y-99913390D02*
X150698333Y-100056247D01*
X150698333Y-100056247D02*
X150650714Y-100246723D01*
X150650714Y-100246723D02*
X150603095Y-100341961D01*
X150603095Y-100341961D02*
X150507857Y-100437200D01*
X150507857Y-100437200D02*
X150365000Y-100484819D01*
X150365000Y-100484819D02*
X150126905Y-100484819D01*
X151555476Y-99484819D02*
X151365000Y-99484819D01*
X151365000Y-99484819D02*
X151269762Y-99532438D01*
X151269762Y-99532438D02*
X151222143Y-99580057D01*
X151222143Y-99580057D02*
X151126905Y-99722914D01*
X151126905Y-99722914D02*
X151079286Y-99913390D01*
X151079286Y-99913390D02*
X151079286Y-100294342D01*
X151079286Y-100294342D02*
X151126905Y-100389580D01*
X151126905Y-100389580D02*
X151174524Y-100437200D01*
X151174524Y-100437200D02*
X151269762Y-100484819D01*
X151269762Y-100484819D02*
X151460238Y-100484819D01*
X151460238Y-100484819D02*
X151555476Y-100437200D01*
X151555476Y-100437200D02*
X151603095Y-100389580D01*
X151603095Y-100389580D02*
X151650714Y-100294342D01*
X151650714Y-100294342D02*
X151650714Y-100056247D01*
X151650714Y-100056247D02*
X151603095Y-99961009D01*
X151603095Y-99961009D02*
X151555476Y-99913390D01*
X151555476Y-99913390D02*
X151460238Y-99865771D01*
X151460238Y-99865771D02*
X151269762Y-99865771D01*
X151269762Y-99865771D02*
X151174524Y-99913390D01*
X151174524Y-99913390D02*
X151126905Y-99961009D01*
X151126905Y-99961009D02*
X151079286Y-100056247D01*
X150103095Y-114724819D02*
X150722142Y-114724819D01*
X150722142Y-114724819D02*
X150388809Y-115105771D01*
X150388809Y-115105771D02*
X150531666Y-115105771D01*
X150531666Y-115105771D02*
X150626904Y-115153390D01*
X150626904Y-115153390D02*
X150674523Y-115201009D01*
X150674523Y-115201009D02*
X150722142Y-115296247D01*
X150722142Y-115296247D02*
X150722142Y-115534342D01*
X150722142Y-115534342D02*
X150674523Y-115629580D01*
X150674523Y-115629580D02*
X150626904Y-115677200D01*
X150626904Y-115677200D02*
X150531666Y-115724819D01*
X150531666Y-115724819D02*
X150245952Y-115724819D01*
X150245952Y-115724819D02*
X150150714Y-115677200D01*
X150150714Y-115677200D02*
X150103095Y-115629580D01*
X151007857Y-114724819D02*
X151341190Y-115724819D01*
X151341190Y-115724819D02*
X151674523Y-114724819D01*
X150126905Y-103024819D02*
X150126905Y-102024819D01*
X150126905Y-102024819D02*
X150365000Y-102024819D01*
X150365000Y-102024819D02*
X150507857Y-102072438D01*
X150507857Y-102072438D02*
X150603095Y-102167676D01*
X150603095Y-102167676D02*
X150650714Y-102262914D01*
X150650714Y-102262914D02*
X150698333Y-102453390D01*
X150698333Y-102453390D02*
X150698333Y-102596247D01*
X150698333Y-102596247D02*
X150650714Y-102786723D01*
X150650714Y-102786723D02*
X150603095Y-102881961D01*
X150603095Y-102881961D02*
X150507857Y-102977200D01*
X150507857Y-102977200D02*
X150365000Y-103024819D01*
X150365000Y-103024819D02*
X150126905Y-103024819D01*
X151031667Y-102024819D02*
X151698333Y-102024819D01*
X151698333Y-102024819D02*
X151269762Y-103024819D01*
X132711904Y-112232438D02*
X132616666Y-112184819D01*
X132616666Y-112184819D02*
X132473809Y-112184819D01*
X132473809Y-112184819D02*
X132330952Y-112232438D01*
X132330952Y-112232438D02*
X132235714Y-112327676D01*
X132235714Y-112327676D02*
X132188095Y-112422914D01*
X132188095Y-112422914D02*
X132140476Y-112613390D01*
X132140476Y-112613390D02*
X132140476Y-112756247D01*
X132140476Y-112756247D02*
X132188095Y-112946723D01*
X132188095Y-112946723D02*
X132235714Y-113041961D01*
X132235714Y-113041961D02*
X132330952Y-113137200D01*
X132330952Y-113137200D02*
X132473809Y-113184819D01*
X132473809Y-113184819D02*
X132569047Y-113184819D01*
X132569047Y-113184819D02*
X132711904Y-113137200D01*
X132711904Y-113137200D02*
X132759523Y-113089580D01*
X132759523Y-113089580D02*
X132759523Y-112756247D01*
X132759523Y-112756247D02*
X132569047Y-112756247D01*
X150126905Y-90324819D02*
X150126905Y-89324819D01*
X150126905Y-89324819D02*
X150365000Y-89324819D01*
X150365000Y-89324819D02*
X150507857Y-89372438D01*
X150507857Y-89372438D02*
X150603095Y-89467676D01*
X150603095Y-89467676D02*
X150650714Y-89562914D01*
X150650714Y-89562914D02*
X150698333Y-89753390D01*
X150698333Y-89753390D02*
X150698333Y-89896247D01*
X150698333Y-89896247D02*
X150650714Y-90086723D01*
X150650714Y-90086723D02*
X150603095Y-90181961D01*
X150603095Y-90181961D02*
X150507857Y-90277200D01*
X150507857Y-90277200D02*
X150365000Y-90324819D01*
X150365000Y-90324819D02*
X150126905Y-90324819D01*
X151555476Y-89658152D02*
X151555476Y-90324819D01*
X151317381Y-89277200D02*
X151079286Y-89991485D01*
X151079286Y-89991485D02*
X151698333Y-89991485D01*
X131688095Y-104564819D02*
X132307142Y-104564819D01*
X132307142Y-104564819D02*
X131973809Y-104945771D01*
X131973809Y-104945771D02*
X132116666Y-104945771D01*
X132116666Y-104945771D02*
X132211904Y-104993390D01*
X132211904Y-104993390D02*
X132259523Y-105041009D01*
X132259523Y-105041009D02*
X132307142Y-105136247D01*
X132307142Y-105136247D02*
X132307142Y-105374342D01*
X132307142Y-105374342D02*
X132259523Y-105469580D01*
X132259523Y-105469580D02*
X132211904Y-105517200D01*
X132211904Y-105517200D02*
X132116666Y-105564819D01*
X132116666Y-105564819D02*
X131830952Y-105564819D01*
X131830952Y-105564819D02*
X131735714Y-105517200D01*
X131735714Y-105517200D02*
X131688095Y-105469580D01*
X132592857Y-104564819D02*
X132926190Y-105564819D01*
X132926190Y-105564819D02*
X133259523Y-104564819D01*
X150103095Y-91864819D02*
X150722142Y-91864819D01*
X150722142Y-91864819D02*
X150388809Y-92245771D01*
X150388809Y-92245771D02*
X150531666Y-92245771D01*
X150531666Y-92245771D02*
X150626904Y-92293390D01*
X150626904Y-92293390D02*
X150674523Y-92341009D01*
X150674523Y-92341009D02*
X150722142Y-92436247D01*
X150722142Y-92436247D02*
X150722142Y-92674342D01*
X150722142Y-92674342D02*
X150674523Y-92769580D01*
X150674523Y-92769580D02*
X150626904Y-92817200D01*
X150626904Y-92817200D02*
X150531666Y-92864819D01*
X150531666Y-92864819D02*
X150245952Y-92864819D01*
X150245952Y-92864819D02*
X150150714Y-92817200D01*
X150150714Y-92817200D02*
X150103095Y-92769580D01*
X151007857Y-91864819D02*
X151341190Y-92864819D01*
X151341190Y-92864819D02*
X151674523Y-91864819D01*
X131354762Y-114724819D02*
X131688095Y-115724819D01*
X131688095Y-115724819D02*
X132021428Y-114724819D01*
X132354762Y-115724819D02*
X132354762Y-114724819D01*
X132830952Y-115724819D02*
X132830952Y-114724819D01*
X132830952Y-114724819D02*
X133402380Y-115724819D01*
X133402380Y-115724819D02*
X133402380Y-114724819D01*
X150126905Y-97944819D02*
X150126905Y-96944819D01*
X150126905Y-96944819D02*
X150365000Y-96944819D01*
X150365000Y-96944819D02*
X150507857Y-96992438D01*
X150507857Y-96992438D02*
X150603095Y-97087676D01*
X150603095Y-97087676D02*
X150650714Y-97182914D01*
X150650714Y-97182914D02*
X150698333Y-97373390D01*
X150698333Y-97373390D02*
X150698333Y-97516247D01*
X150698333Y-97516247D02*
X150650714Y-97706723D01*
X150650714Y-97706723D02*
X150603095Y-97801961D01*
X150603095Y-97801961D02*
X150507857Y-97897200D01*
X150507857Y-97897200D02*
X150365000Y-97944819D01*
X150365000Y-97944819D02*
X150126905Y-97944819D01*
X151603095Y-96944819D02*
X151126905Y-96944819D01*
X151126905Y-96944819D02*
X151079286Y-97421009D01*
X151079286Y-97421009D02*
X151126905Y-97373390D01*
X151126905Y-97373390D02*
X151222143Y-97325771D01*
X151222143Y-97325771D02*
X151460238Y-97325771D01*
X151460238Y-97325771D02*
X151555476Y-97373390D01*
X151555476Y-97373390D02*
X151603095Y-97421009D01*
X151603095Y-97421009D02*
X151650714Y-97516247D01*
X151650714Y-97516247D02*
X151650714Y-97754342D01*
X151650714Y-97754342D02*
X151603095Y-97849580D01*
X151603095Y-97849580D02*
X151555476Y-97897200D01*
X151555476Y-97897200D02*
X151460238Y-97944819D01*
X151460238Y-97944819D02*
X151222143Y-97944819D01*
X151222143Y-97944819D02*
X151126905Y-97897200D01*
X151126905Y-97897200D02*
X151079286Y-97849580D01*
X131711905Y-107581009D02*
X132045238Y-107581009D01*
X132188095Y-108104819D02*
X131711905Y-108104819D01*
X131711905Y-108104819D02*
X131711905Y-107104819D01*
X131711905Y-107104819D02*
X132188095Y-107104819D01*
X132616667Y-108104819D02*
X132616667Y-107104819D01*
X132616667Y-107104819D02*
X133188095Y-108104819D01*
X133188095Y-108104819D02*
X133188095Y-107104819D01*
X131902380Y-110644819D02*
X131569047Y-110168628D01*
X131330952Y-110644819D02*
X131330952Y-109644819D01*
X131330952Y-109644819D02*
X131711904Y-109644819D01*
X131711904Y-109644819D02*
X131807142Y-109692438D01*
X131807142Y-109692438D02*
X131854761Y-109740057D01*
X131854761Y-109740057D02*
X131902380Y-109835295D01*
X131902380Y-109835295D02*
X131902380Y-109978152D01*
X131902380Y-109978152D02*
X131854761Y-110073390D01*
X131854761Y-110073390D02*
X131807142Y-110121009D01*
X131807142Y-110121009D02*
X131711904Y-110168628D01*
X131711904Y-110168628D02*
X131330952Y-110168628D01*
X132283333Y-110597200D02*
X132426190Y-110644819D01*
X132426190Y-110644819D02*
X132664285Y-110644819D01*
X132664285Y-110644819D02*
X132759523Y-110597200D01*
X132759523Y-110597200D02*
X132807142Y-110549580D01*
X132807142Y-110549580D02*
X132854761Y-110454342D01*
X132854761Y-110454342D02*
X132854761Y-110359104D01*
X132854761Y-110359104D02*
X132807142Y-110263866D01*
X132807142Y-110263866D02*
X132759523Y-110216247D01*
X132759523Y-110216247D02*
X132664285Y-110168628D01*
X132664285Y-110168628D02*
X132473809Y-110121009D01*
X132473809Y-110121009D02*
X132378571Y-110073390D01*
X132378571Y-110073390D02*
X132330952Y-110025771D01*
X132330952Y-110025771D02*
X132283333Y-109930533D01*
X132283333Y-109930533D02*
X132283333Y-109835295D01*
X132283333Y-109835295D02*
X132330952Y-109740057D01*
X132330952Y-109740057D02*
X132378571Y-109692438D01*
X132378571Y-109692438D02*
X132473809Y-109644819D01*
X132473809Y-109644819D02*
X132711904Y-109644819D01*
X132711904Y-109644819D02*
X132854761Y-109692438D01*
X133140476Y-109644819D02*
X133711904Y-109644819D01*
X133426190Y-110644819D02*
X133426190Y-109644819D01*
X150126905Y-85244819D02*
X150126905Y-84244819D01*
X150126905Y-84244819D02*
X150365000Y-84244819D01*
X150365000Y-84244819D02*
X150507857Y-84292438D01*
X150507857Y-84292438D02*
X150603095Y-84387676D01*
X150603095Y-84387676D02*
X150650714Y-84482914D01*
X150650714Y-84482914D02*
X150698333Y-84673390D01*
X150698333Y-84673390D02*
X150698333Y-84816247D01*
X150698333Y-84816247D02*
X150650714Y-85006723D01*
X150650714Y-85006723D02*
X150603095Y-85101961D01*
X150603095Y-85101961D02*
X150507857Y-85197200D01*
X150507857Y-85197200D02*
X150365000Y-85244819D01*
X150365000Y-85244819D02*
X150126905Y-85244819D01*
X151079286Y-84340057D02*
X151126905Y-84292438D01*
X151126905Y-84292438D02*
X151222143Y-84244819D01*
X151222143Y-84244819D02*
X151460238Y-84244819D01*
X151460238Y-84244819D02*
X151555476Y-84292438D01*
X151555476Y-84292438D02*
X151603095Y-84340057D01*
X151603095Y-84340057D02*
X151650714Y-84435295D01*
X151650714Y-84435295D02*
X151650714Y-84530533D01*
X151650714Y-84530533D02*
X151603095Y-84673390D01*
X151603095Y-84673390D02*
X151031667Y-85244819D01*
X151031667Y-85244819D02*
X151650714Y-85244819D01*
X131640476Y-97897200D02*
X131783333Y-97944819D01*
X131783333Y-97944819D02*
X132021428Y-97944819D01*
X132021428Y-97944819D02*
X132116666Y-97897200D01*
X132116666Y-97897200D02*
X132164285Y-97849580D01*
X132164285Y-97849580D02*
X132211904Y-97754342D01*
X132211904Y-97754342D02*
X132211904Y-97659104D01*
X132211904Y-97659104D02*
X132164285Y-97563866D01*
X132164285Y-97563866D02*
X132116666Y-97516247D01*
X132116666Y-97516247D02*
X132021428Y-97468628D01*
X132021428Y-97468628D02*
X131830952Y-97421009D01*
X131830952Y-97421009D02*
X131735714Y-97373390D01*
X131735714Y-97373390D02*
X131688095Y-97325771D01*
X131688095Y-97325771D02*
X131640476Y-97230533D01*
X131640476Y-97230533D02*
X131640476Y-97135295D01*
X131640476Y-97135295D02*
X131688095Y-97040057D01*
X131688095Y-97040057D02*
X131735714Y-96992438D01*
X131735714Y-96992438D02*
X131830952Y-96944819D01*
X131830952Y-96944819D02*
X132069047Y-96944819D01*
X132069047Y-96944819D02*
X132211904Y-96992438D01*
X132830952Y-96944819D02*
X133021428Y-96944819D01*
X133021428Y-96944819D02*
X133116666Y-96992438D01*
X133116666Y-96992438D02*
X133211904Y-97087676D01*
X133211904Y-97087676D02*
X133259523Y-97278152D01*
X133259523Y-97278152D02*
X133259523Y-97611485D01*
X133259523Y-97611485D02*
X133211904Y-97801961D01*
X133211904Y-97801961D02*
X133116666Y-97897200D01*
X133116666Y-97897200D02*
X133021428Y-97944819D01*
X133021428Y-97944819D02*
X132830952Y-97944819D01*
X132830952Y-97944819D02*
X132735714Y-97897200D01*
X132735714Y-97897200D02*
X132640476Y-97801961D01*
X132640476Y-97801961D02*
X132592857Y-97611485D01*
X132592857Y-97611485D02*
X132592857Y-97278152D01*
X132592857Y-97278152D02*
X132640476Y-97087676D01*
X132640476Y-97087676D02*
X132735714Y-96992438D01*
X132735714Y-96992438D02*
X132830952Y-96944819D01*
X138522618Y-77624819D02*
X138189285Y-77148628D01*
X137951190Y-77624819D02*
X137951190Y-76624819D01*
X137951190Y-76624819D02*
X138332142Y-76624819D01*
X138332142Y-76624819D02*
X138427380Y-76672438D01*
X138427380Y-76672438D02*
X138474999Y-76720057D01*
X138474999Y-76720057D02*
X138522618Y-76815295D01*
X138522618Y-76815295D02*
X138522618Y-76958152D01*
X138522618Y-76958152D02*
X138474999Y-77053390D01*
X138474999Y-77053390D02*
X138427380Y-77101009D01*
X138427380Y-77101009D02*
X138332142Y-77148628D01*
X138332142Y-77148628D02*
X137951190Y-77148628D01*
X139284523Y-77101009D02*
X138951190Y-77101009D01*
X138951190Y-77624819D02*
X138951190Y-76624819D01*
X138951190Y-76624819D02*
X139427380Y-76624819D01*
X140522619Y-77339104D02*
X140998809Y-77339104D01*
X140427381Y-77624819D02*
X140760714Y-76624819D01*
X140760714Y-76624819D02*
X141094047Y-77624819D01*
X141427381Y-76958152D02*
X141427381Y-77624819D01*
X141427381Y-77053390D02*
X141475000Y-77005771D01*
X141475000Y-77005771D02*
X141570238Y-76958152D01*
X141570238Y-76958152D02*
X141713095Y-76958152D01*
X141713095Y-76958152D02*
X141808333Y-77005771D01*
X141808333Y-77005771D02*
X141855952Y-77101009D01*
X141855952Y-77101009D02*
X141855952Y-77624819D01*
X142189286Y-76958152D02*
X142570238Y-76958152D01*
X142332143Y-76624819D02*
X142332143Y-77481961D01*
X142332143Y-77481961D02*
X142379762Y-77577200D01*
X142379762Y-77577200D02*
X142475000Y-77624819D01*
X142475000Y-77624819D02*
X142570238Y-77624819D01*
X143284524Y-77577200D02*
X143189286Y-77624819D01*
X143189286Y-77624819D02*
X142998810Y-77624819D01*
X142998810Y-77624819D02*
X142903572Y-77577200D01*
X142903572Y-77577200D02*
X142855953Y-77481961D01*
X142855953Y-77481961D02*
X142855953Y-77101009D01*
X142855953Y-77101009D02*
X142903572Y-77005771D01*
X142903572Y-77005771D02*
X142998810Y-76958152D01*
X142998810Y-76958152D02*
X143189286Y-76958152D01*
X143189286Y-76958152D02*
X143284524Y-77005771D01*
X143284524Y-77005771D02*
X143332143Y-77101009D01*
X143332143Y-77101009D02*
X143332143Y-77196247D01*
X143332143Y-77196247D02*
X142855953Y-77291485D01*
X143760715Y-76958152D02*
X143760715Y-77624819D01*
X143760715Y-77053390D02*
X143808334Y-77005771D01*
X143808334Y-77005771D02*
X143903572Y-76958152D01*
X143903572Y-76958152D02*
X144046429Y-76958152D01*
X144046429Y-76958152D02*
X144141667Y-77005771D01*
X144141667Y-77005771D02*
X144189286Y-77101009D01*
X144189286Y-77101009D02*
X144189286Y-77624819D01*
X144665477Y-76958152D02*
X144665477Y-77624819D01*
X144665477Y-77053390D02*
X144713096Y-77005771D01*
X144713096Y-77005771D02*
X144808334Y-76958152D01*
X144808334Y-76958152D02*
X144951191Y-76958152D01*
X144951191Y-76958152D02*
X145046429Y-77005771D01*
X145046429Y-77005771D02*
X145094048Y-77101009D01*
X145094048Y-77101009D02*
X145094048Y-77624819D01*
X145998810Y-77624819D02*
X145998810Y-77101009D01*
X145998810Y-77101009D02*
X145951191Y-77005771D01*
X145951191Y-77005771D02*
X145855953Y-76958152D01*
X145855953Y-76958152D02*
X145665477Y-76958152D01*
X145665477Y-76958152D02*
X145570239Y-77005771D01*
X145998810Y-77577200D02*
X145903572Y-77624819D01*
X145903572Y-77624819D02*
X145665477Y-77624819D01*
X145665477Y-77624819D02*
X145570239Y-77577200D01*
X145570239Y-77577200D02*
X145522620Y-77481961D01*
X145522620Y-77481961D02*
X145522620Y-77386723D01*
X145522620Y-77386723D02*
X145570239Y-77291485D01*
X145570239Y-77291485D02*
X145665477Y-77243866D01*
X145665477Y-77243866D02*
X145903572Y-77243866D01*
X145903572Y-77243866D02*
X145998810Y-77196247D01*
X151126904Y-94452438D02*
X151031666Y-94404819D01*
X151031666Y-94404819D02*
X150888809Y-94404819D01*
X150888809Y-94404819D02*
X150745952Y-94452438D01*
X150745952Y-94452438D02*
X150650714Y-94547676D01*
X150650714Y-94547676D02*
X150603095Y-94642914D01*
X150603095Y-94642914D02*
X150555476Y-94833390D01*
X150555476Y-94833390D02*
X150555476Y-94976247D01*
X150555476Y-94976247D02*
X150603095Y-95166723D01*
X150603095Y-95166723D02*
X150650714Y-95261961D01*
X150650714Y-95261961D02*
X150745952Y-95357200D01*
X150745952Y-95357200D02*
X150888809Y-95404819D01*
X150888809Y-95404819D02*
X150984047Y-95404819D01*
X150984047Y-95404819D02*
X151126904Y-95357200D01*
X151126904Y-95357200D02*
X151174523Y-95309580D01*
X151174523Y-95309580D02*
X151174523Y-94976247D01*
X151174523Y-94976247D02*
X150984047Y-94976247D01*
X131688095Y-90277200D02*
X131830952Y-90324819D01*
X131830952Y-90324819D02*
X132069047Y-90324819D01*
X132069047Y-90324819D02*
X132164285Y-90277200D01*
X132164285Y-90277200D02*
X132211904Y-90229580D01*
X132211904Y-90229580D02*
X132259523Y-90134342D01*
X132259523Y-90134342D02*
X132259523Y-90039104D01*
X132259523Y-90039104D02*
X132211904Y-89943866D01*
X132211904Y-89943866D02*
X132164285Y-89896247D01*
X132164285Y-89896247D02*
X132069047Y-89848628D01*
X132069047Y-89848628D02*
X131878571Y-89801009D01*
X131878571Y-89801009D02*
X131783333Y-89753390D01*
X131783333Y-89753390D02*
X131735714Y-89705771D01*
X131735714Y-89705771D02*
X131688095Y-89610533D01*
X131688095Y-89610533D02*
X131688095Y-89515295D01*
X131688095Y-89515295D02*
X131735714Y-89420057D01*
X131735714Y-89420057D02*
X131783333Y-89372438D01*
X131783333Y-89372438D02*
X131878571Y-89324819D01*
X131878571Y-89324819D02*
X132116666Y-89324819D01*
X132116666Y-89324819D02*
X132259523Y-89372438D01*
X132640476Y-89420057D02*
X132688095Y-89372438D01*
X132688095Y-89372438D02*
X132783333Y-89324819D01*
X132783333Y-89324819D02*
X133021428Y-89324819D01*
X133021428Y-89324819D02*
X133116666Y-89372438D01*
X133116666Y-89372438D02*
X133164285Y-89420057D01*
X133164285Y-89420057D02*
X133211904Y-89515295D01*
X133211904Y-89515295D02*
X133211904Y-89610533D01*
X133211904Y-89610533D02*
X133164285Y-89753390D01*
X133164285Y-89753390D02*
X132592857Y-90324819D01*
X132592857Y-90324819D02*
X133211904Y-90324819D01*
X131664286Y-100437200D02*
X131807143Y-100484819D01*
X131807143Y-100484819D02*
X132045238Y-100484819D01*
X132045238Y-100484819D02*
X132140476Y-100437200D01*
X132140476Y-100437200D02*
X132188095Y-100389580D01*
X132188095Y-100389580D02*
X132235714Y-100294342D01*
X132235714Y-100294342D02*
X132235714Y-100199104D01*
X132235714Y-100199104D02*
X132188095Y-100103866D01*
X132188095Y-100103866D02*
X132140476Y-100056247D01*
X132140476Y-100056247D02*
X132045238Y-100008628D01*
X132045238Y-100008628D02*
X131854762Y-99961009D01*
X131854762Y-99961009D02*
X131759524Y-99913390D01*
X131759524Y-99913390D02*
X131711905Y-99865771D01*
X131711905Y-99865771D02*
X131664286Y-99770533D01*
X131664286Y-99770533D02*
X131664286Y-99675295D01*
X131664286Y-99675295D02*
X131711905Y-99580057D01*
X131711905Y-99580057D02*
X131759524Y-99532438D01*
X131759524Y-99532438D02*
X131854762Y-99484819D01*
X131854762Y-99484819D02*
X132092857Y-99484819D01*
X132092857Y-99484819D02*
X132235714Y-99532438D01*
X132664286Y-100484819D02*
X132664286Y-99484819D01*
X133235714Y-100484819D02*
X132807143Y-99913390D01*
X133235714Y-99484819D02*
X132664286Y-100056247D01*
X132711904Y-102072438D02*
X132616666Y-102024819D01*
X132616666Y-102024819D02*
X132473809Y-102024819D01*
X132473809Y-102024819D02*
X132330952Y-102072438D01*
X132330952Y-102072438D02*
X132235714Y-102167676D01*
X132235714Y-102167676D02*
X132188095Y-102262914D01*
X132188095Y-102262914D02*
X132140476Y-102453390D01*
X132140476Y-102453390D02*
X132140476Y-102596247D01*
X132140476Y-102596247D02*
X132188095Y-102786723D01*
X132188095Y-102786723D02*
X132235714Y-102881961D01*
X132235714Y-102881961D02*
X132330952Y-102977200D01*
X132330952Y-102977200D02*
X132473809Y-103024819D01*
X132473809Y-103024819D02*
X132569047Y-103024819D01*
X132569047Y-103024819D02*
X132711904Y-102977200D01*
X132711904Y-102977200D02*
X132759523Y-102929580D01*
X132759523Y-102929580D02*
X132759523Y-102596247D01*
X132759523Y-102596247D02*
X132569047Y-102596247D01*
X160666666Y-118454819D02*
X160666666Y-119169104D01*
X160666666Y-119169104D02*
X160619047Y-119311961D01*
X160619047Y-119311961D02*
X160523809Y-119407200D01*
X160523809Y-119407200D02*
X160380952Y-119454819D01*
X160380952Y-119454819D02*
X160285714Y-119454819D01*
X161095238Y-118550057D02*
X161142857Y-118502438D01*
X161142857Y-118502438D02*
X161238095Y-118454819D01*
X161238095Y-118454819D02*
X161476190Y-118454819D01*
X161476190Y-118454819D02*
X161571428Y-118502438D01*
X161571428Y-118502438D02*
X161619047Y-118550057D01*
X161619047Y-118550057D02*
X161666666Y-118645295D01*
X161666666Y-118645295D02*
X161666666Y-118740533D01*
X161666666Y-118740533D02*
X161619047Y-118883390D01*
X161619047Y-118883390D02*
X161047619Y-119454819D01*
X161047619Y-119454819D02*
X161666666Y-119454819D01*
X161023333Y-75084819D02*
X160690000Y-74608628D01*
X160451905Y-75084819D02*
X160451905Y-74084819D01*
X160451905Y-74084819D02*
X160832857Y-74084819D01*
X160832857Y-74084819D02*
X160928095Y-74132438D01*
X160928095Y-74132438D02*
X160975714Y-74180057D01*
X160975714Y-74180057D02*
X161023333Y-74275295D01*
X161023333Y-74275295D02*
X161023333Y-74418152D01*
X161023333Y-74418152D02*
X160975714Y-74513390D01*
X160975714Y-74513390D02*
X160928095Y-74561009D01*
X160928095Y-74561009D02*
X160832857Y-74608628D01*
X160832857Y-74608628D02*
X160451905Y-74608628D01*
X161975714Y-75084819D02*
X161404286Y-75084819D01*
X161690000Y-75084819D02*
X161690000Y-74084819D01*
X161690000Y-74084819D02*
X161594762Y-74227676D01*
X161594762Y-74227676D02*
X161499524Y-74322914D01*
X161499524Y-74322914D02*
X161404286Y-74370533D01*
X160666666Y-79454819D02*
X160666666Y-80169104D01*
X160666666Y-80169104D02*
X160619047Y-80311961D01*
X160619047Y-80311961D02*
X160523809Y-80407200D01*
X160523809Y-80407200D02*
X160380952Y-80454819D01*
X160380952Y-80454819D02*
X160285714Y-80454819D01*
X161666666Y-80454819D02*
X161095238Y-80454819D01*
X161380952Y-80454819D02*
X161380952Y-79454819D01*
X161380952Y-79454819D02*
X161285714Y-79597676D01*
X161285714Y-79597676D02*
X161190476Y-79692914D01*
X161190476Y-79692914D02*
X161095238Y-79740533D01*
%TO.C,U1*%
X128640000Y-74630000D02*
X128640000Y-120350000D01*
X136475000Y-80490000D02*
X136475000Y-73360000D01*
X138165000Y-121620000D02*
X129910000Y-121620000D01*
X138175000Y-116890000D02*
X145775000Y-116890000D01*
X138175000Y-122620000D02*
X138175000Y-116890000D01*
X145775000Y-116890000D02*
X145775000Y-122620000D01*
X145775000Y-122620000D02*
X138175000Y-122620000D01*
X147475000Y-73360000D02*
X147475000Y-80490000D01*
X147475000Y-80490000D02*
X136475000Y-80490000D01*
X153405000Y-73360000D02*
X129275000Y-73360000D01*
X153405000Y-121620000D02*
X145785000Y-121620000D01*
X154675000Y-74630000D02*
X154675000Y-120350000D01*
X128640000Y-74630000D02*
G75*
G02*
X129910000Y-73360000I1269999J1D01*
G01*
X129910000Y-121620000D02*
G75*
G02*
X128640000Y-120350000I-1J1269999D01*
G01*
X153405000Y-73360000D02*
G75*
G02*
X154675000Y-74630000I0J-1270000D01*
G01*
X154675000Y-120350000D02*
G75*
G02*
X153405000Y-121620000I-1270000J0D01*
G01*
X132976051Y-75900000D02*
G75*
G02*
X129383949Y-75900000I-1796051J0D01*
G01*
X129383949Y-75900000D02*
G75*
G02*
X132976051Y-75900000I1796051J0D01*
G01*
X132976051Y-119080000D02*
G75*
G02*
X129383949Y-119080000I-1796051J0D01*
G01*
X129383949Y-119080000D02*
G75*
G02*
X132976051Y-119080000I1796051J0D01*
G01*
X153931051Y-75900000D02*
G75*
G02*
X150338949Y-75900000I-1796051J0D01*
G01*
X150338949Y-75900000D02*
G75*
G02*
X153931051Y-75900000I1796051J0D01*
G01*
X153931051Y-119080000D02*
G75*
G02*
X150338949Y-119080000I-1796051J0D01*
G01*
X150338949Y-119080000D02*
G75*
G02*
X153931051Y-119080000I1796051J0D01*
G01*
D11*
%TO.C,J2*%
X157150000Y-99670000D02*
X157150000Y-117130000D01*
X157150000Y-117130000D02*
X165970000Y-117130000D01*
X158860000Y-100580000D02*
X164160000Y-100580000D01*
X158860000Y-101320000D02*
X158860000Y-100580000D01*
X158860000Y-105320000D02*
X158860000Y-106400000D01*
X158860000Y-110400000D02*
X158860000Y-111480000D01*
X158860000Y-116220000D02*
X158860000Y-115480000D01*
X164160000Y-100580000D02*
X164160000Y-116220000D01*
X164160000Y-102320000D02*
X165970000Y-102320000D01*
X164160000Y-104320000D02*
X164160000Y-102320000D01*
X164160000Y-107400000D02*
X165970000Y-107400000D01*
X164160000Y-109400000D02*
X164160000Y-107400000D01*
X164160000Y-112480000D02*
X165970000Y-112480000D01*
X164160000Y-114480000D02*
X164160000Y-112480000D01*
X164160000Y-116220000D02*
X158860000Y-116220000D01*
X165160000Y-99670000D02*
X165160000Y-102210000D01*
X165160000Y-104320000D02*
X165160000Y-107400000D01*
X165160000Y-109400000D02*
X165160000Y-112480000D01*
X165160000Y-117130000D02*
X165160000Y-114590000D01*
X165970000Y-99670000D02*
X157150000Y-99670000D01*
X165970000Y-102320000D02*
X165970000Y-104320000D01*
X165970000Y-104320000D02*
X164160000Y-104320000D01*
X165970000Y-107400000D02*
X165970000Y-109400000D01*
X165970000Y-109400000D02*
X164160000Y-109400000D01*
X165970000Y-112480000D02*
X165970000Y-114480000D01*
X165970000Y-114480000D02*
X164160000Y-114480000D01*
X165970000Y-117130000D02*
X165970000Y-99670000D01*
X166170000Y-103320000D02*
X166770000Y-103020000D01*
X166770000Y-103020000D02*
X166770000Y-103620000D01*
X166770000Y-103620000D02*
X166170000Y-103320000D01*
X158844179Y-105306842D02*
G75*
G02*
X158860000Y-101320000I1665821J1986842D01*
G01*
X158844179Y-110386842D02*
G75*
G02*
X158860000Y-106400000I1665821J1986842D01*
G01*
X158844179Y-115466842D02*
G75*
G02*
X158860000Y-111480000I1665821J1986842D01*
G01*
%TO.C,R1*%
X157920000Y-75630000D02*
X164460000Y-75630000D01*
X157920000Y-75960000D02*
X157920000Y-75630000D01*
X157920000Y-78040000D02*
X157920000Y-78370000D01*
X157920000Y-78370000D02*
X164460000Y-78370000D01*
X164460000Y-75630000D02*
X164460000Y-75960000D01*
X164460000Y-78370000D02*
X164460000Y-78040000D01*
%TO.C,J1*%
X157127500Y-81170000D02*
X157127500Y-98630000D01*
X157127500Y-98630000D02*
X165947500Y-98630000D01*
X158837500Y-82080000D02*
X164137500Y-82080000D01*
X158837500Y-82820000D02*
X158837500Y-82080000D01*
X158837500Y-86820000D02*
X158837500Y-87900000D01*
X158837500Y-91900000D02*
X158837500Y-92980000D01*
X158837500Y-97720000D02*
X158837500Y-96980000D01*
X164137500Y-82080000D02*
X164137500Y-97720000D01*
X164137500Y-83820000D02*
X165947500Y-83820000D01*
X164137500Y-85820000D02*
X164137500Y-83820000D01*
X164137500Y-88900000D02*
X165947500Y-88900000D01*
X164137500Y-90900000D02*
X164137500Y-88900000D01*
X164137500Y-93980000D02*
X165947500Y-93980000D01*
X164137500Y-95980000D02*
X164137500Y-93980000D01*
X164137500Y-97720000D02*
X158837500Y-97720000D01*
X165137500Y-81170000D02*
X165137500Y-83710000D01*
X165137500Y-85820000D02*
X165137500Y-88900000D01*
X165137500Y-90900000D02*
X165137500Y-93980000D01*
X165137500Y-98630000D02*
X165137500Y-96090000D01*
X165947500Y-81170000D02*
X157127500Y-81170000D01*
X165947500Y-83820000D02*
X165947500Y-85820000D01*
X165947500Y-85820000D02*
X164137500Y-85820000D01*
X165947500Y-88900000D02*
X165947500Y-90900000D01*
X165947500Y-90900000D02*
X164137500Y-90900000D01*
X165947500Y-93980000D02*
X165947500Y-95980000D01*
X165947500Y-95980000D02*
X164137500Y-95980000D01*
X165947500Y-98630000D02*
X165947500Y-81170000D01*
X166147500Y-84820000D02*
X166747500Y-84520000D01*
X166747500Y-84520000D02*
X166747500Y-85120000D01*
X166747500Y-85120000D02*
X166147500Y-84820000D01*
X158821679Y-86806842D02*
G75*
G02*
X158837500Y-82820000I1665821J1986842D01*
G01*
X158821679Y-91886842D02*
G75*
G02*
X158837500Y-87900000I1665821J1986842D01*
G01*
X158821679Y-96966842D02*
G75*
G02*
X158837500Y-92980000I1665821J1986842D01*
G01*
%TD*%
M02*
