%TF.GenerationSoftware,KiCad,Pcbnew,8.0.3*%
%TF.CreationDate,2024-08-12T18:47:13+02:00*%
%TF.ProjectId,led-strip-connector,6c65642d-7374-4726-9970-2d636f6e6e65,rev?*%
%TF.SameCoordinates,Original*%
%TF.FileFunction,Legend,Top*%
%TF.FilePolarity,Positive*%
%FSLAX46Y46*%
G04 Gerber Fmt 4.6, Leading zero omitted, Abs format (unit mm)*
G04 Created by KiCad (PCBNEW 8.0.3) date 2024-08-12 18:47:13*
%MOMM*%
%LPD*%
G01*
G04 APERTURE LIST*
%ADD10C,0.150000*%
%ADD11C,0.120000*%
G04 APERTURE END LIST*
D10*
X148238095Y-111754819D02*
X148238095Y-112564342D01*
X148238095Y-112564342D02*
X148285714Y-112659580D01*
X148285714Y-112659580D02*
X148333333Y-112707200D01*
X148333333Y-112707200D02*
X148428571Y-112754819D01*
X148428571Y-112754819D02*
X148619047Y-112754819D01*
X148619047Y-112754819D02*
X148714285Y-112707200D01*
X148714285Y-112707200D02*
X148761904Y-112659580D01*
X148761904Y-112659580D02*
X148809523Y-112564342D01*
X148809523Y-112564342D02*
X148809523Y-111754819D01*
X149190476Y-111754819D02*
X149809523Y-111754819D01*
X149809523Y-111754819D02*
X149476190Y-112135771D01*
X149476190Y-112135771D02*
X149619047Y-112135771D01*
X149619047Y-112135771D02*
X149714285Y-112183390D01*
X149714285Y-112183390D02*
X149761904Y-112231009D01*
X149761904Y-112231009D02*
X149809523Y-112326247D01*
X149809523Y-112326247D02*
X149809523Y-112564342D01*
X149809523Y-112564342D02*
X149761904Y-112659580D01*
X149761904Y-112659580D02*
X149714285Y-112707200D01*
X149714285Y-112707200D02*
X149619047Y-112754819D01*
X149619047Y-112754819D02*
X149333333Y-112754819D01*
X149333333Y-112754819D02*
X149238095Y-112707200D01*
X149238095Y-112707200D02*
X149190476Y-112659580D01*
X164766666Y-80854819D02*
X164766666Y-81569104D01*
X164766666Y-81569104D02*
X164719047Y-81711961D01*
X164719047Y-81711961D02*
X164623809Y-81807200D01*
X164623809Y-81807200D02*
X164480952Y-81854819D01*
X164480952Y-81854819D02*
X164385714Y-81854819D01*
X165766666Y-81854819D02*
X165195238Y-81854819D01*
X165480952Y-81854819D02*
X165480952Y-80854819D01*
X165480952Y-80854819D02*
X165385714Y-80997676D01*
X165385714Y-80997676D02*
X165290476Y-81092914D01*
X165290476Y-81092914D02*
X165195238Y-81140533D01*
X156954819Y-82961904D02*
X157764342Y-82961904D01*
X157764342Y-82961904D02*
X157859580Y-82914285D01*
X157859580Y-82914285D02*
X157907200Y-82866666D01*
X157907200Y-82866666D02*
X157954819Y-82771428D01*
X157954819Y-82771428D02*
X157954819Y-82580952D01*
X157954819Y-82580952D02*
X157907200Y-82485714D01*
X157907200Y-82485714D02*
X157859580Y-82438095D01*
X157859580Y-82438095D02*
X157764342Y-82390476D01*
X157764342Y-82390476D02*
X156954819Y-82390476D01*
X157288152Y-81485714D02*
X157954819Y-81485714D01*
X156907200Y-81723809D02*
X157621485Y-81961904D01*
X157621485Y-81961904D02*
X157621485Y-81342857D01*
X144938095Y-108954819D02*
X144938095Y-109764342D01*
X144938095Y-109764342D02*
X144985714Y-109859580D01*
X144985714Y-109859580D02*
X145033333Y-109907200D01*
X145033333Y-109907200D02*
X145128571Y-109954819D01*
X145128571Y-109954819D02*
X145319047Y-109954819D01*
X145319047Y-109954819D02*
X145414285Y-109907200D01*
X145414285Y-109907200D02*
X145461904Y-109859580D01*
X145461904Y-109859580D02*
X145509523Y-109764342D01*
X145509523Y-109764342D02*
X145509523Y-108954819D01*
X145938095Y-109050057D02*
X145985714Y-109002438D01*
X145985714Y-109002438D02*
X146080952Y-108954819D01*
X146080952Y-108954819D02*
X146319047Y-108954819D01*
X146319047Y-108954819D02*
X146414285Y-109002438D01*
X146414285Y-109002438D02*
X146461904Y-109050057D01*
X146461904Y-109050057D02*
X146509523Y-109145295D01*
X146509523Y-109145295D02*
X146509523Y-109240533D01*
X146509523Y-109240533D02*
X146461904Y-109383390D01*
X146461904Y-109383390D02*
X145890476Y-109954819D01*
X145890476Y-109954819D02*
X146509523Y-109954819D01*
X162361905Y-111209819D02*
X162361905Y-112019342D01*
X162361905Y-112019342D02*
X162409524Y-112114580D01*
X162409524Y-112114580D02*
X162457143Y-112162200D01*
X162457143Y-112162200D02*
X162552381Y-112209819D01*
X162552381Y-112209819D02*
X162742857Y-112209819D01*
X162742857Y-112209819D02*
X162838095Y-112162200D01*
X162838095Y-112162200D02*
X162885714Y-112114580D01*
X162885714Y-112114580D02*
X162933333Y-112019342D01*
X162933333Y-112019342D02*
X162933333Y-111209819D01*
X163361905Y-112162200D02*
X163504762Y-112209819D01*
X163504762Y-112209819D02*
X163742857Y-112209819D01*
X163742857Y-112209819D02*
X163838095Y-112162200D01*
X163838095Y-112162200D02*
X163885714Y-112114580D01*
X163885714Y-112114580D02*
X163933333Y-112019342D01*
X163933333Y-112019342D02*
X163933333Y-111924104D01*
X163933333Y-111924104D02*
X163885714Y-111828866D01*
X163885714Y-111828866D02*
X163838095Y-111781247D01*
X163838095Y-111781247D02*
X163742857Y-111733628D01*
X163742857Y-111733628D02*
X163552381Y-111686009D01*
X163552381Y-111686009D02*
X163457143Y-111638390D01*
X163457143Y-111638390D02*
X163409524Y-111590771D01*
X163409524Y-111590771D02*
X163361905Y-111495533D01*
X163361905Y-111495533D02*
X163361905Y-111400295D01*
X163361905Y-111400295D02*
X163409524Y-111305057D01*
X163409524Y-111305057D02*
X163457143Y-111257438D01*
X163457143Y-111257438D02*
X163552381Y-111209819D01*
X163552381Y-111209819D02*
X163790476Y-111209819D01*
X163790476Y-111209819D02*
X163933333Y-111257438D01*
X164695238Y-111686009D02*
X164838095Y-111733628D01*
X164838095Y-111733628D02*
X164885714Y-111781247D01*
X164885714Y-111781247D02*
X164933333Y-111876485D01*
X164933333Y-111876485D02*
X164933333Y-112019342D01*
X164933333Y-112019342D02*
X164885714Y-112114580D01*
X164885714Y-112114580D02*
X164838095Y-112162200D01*
X164838095Y-112162200D02*
X164742857Y-112209819D01*
X164742857Y-112209819D02*
X164361905Y-112209819D01*
X164361905Y-112209819D02*
X164361905Y-111209819D01*
X164361905Y-111209819D02*
X164695238Y-111209819D01*
X164695238Y-111209819D02*
X164790476Y-111257438D01*
X164790476Y-111257438D02*
X164838095Y-111305057D01*
X164838095Y-111305057D02*
X164885714Y-111400295D01*
X164885714Y-111400295D02*
X164885714Y-111495533D01*
X164885714Y-111495533D02*
X164838095Y-111590771D01*
X164838095Y-111590771D02*
X164790476Y-111638390D01*
X164790476Y-111638390D02*
X164695238Y-111686009D01*
X164695238Y-111686009D02*
X164361905Y-111686009D01*
X165885714Y-112209819D02*
X165314286Y-112209819D01*
X165600000Y-112209819D02*
X165600000Y-111209819D01*
X165600000Y-111209819D02*
X165504762Y-111352676D01*
X165504762Y-111352676D02*
X165409524Y-111447914D01*
X165409524Y-111447914D02*
X165314286Y-111495533D01*
D11*
%TO.C,C4*%
X153965000Y-114738748D02*
X153965000Y-115261252D01*
X155435000Y-114738748D02*
X155435000Y-115261252D01*
%TO.C,R2*%
X158077500Y-110462742D02*
X158077500Y-110937258D01*
X159122500Y-110462742D02*
X159122500Y-110937258D01*
%TO.C,R1*%
X158462742Y-88677500D02*
X158937258Y-88677500D01*
X158462742Y-89722500D02*
X158937258Y-89722500D01*
%TO.C,U3*%
X147150000Y-113390000D02*
X150910000Y-113390000D01*
X147150000Y-120210000D02*
X150910000Y-120210000D01*
X150910000Y-113390000D02*
X150910000Y-114650000D01*
X150910000Y-120210000D02*
X150910000Y-118950000D01*
X145870000Y-113490000D02*
X145630000Y-113160000D01*
X146110000Y-113160000D01*
X145870000Y-113490000D01*
G36*
X145870000Y-113490000D02*
G01*
X145630000Y-113160000D01*
X146110000Y-113160000D01*
X145870000Y-113490000D01*
G37*
%TO.C,C3*%
X153965000Y-118961252D02*
X153965000Y-118438748D01*
X155435000Y-118961252D02*
X155435000Y-118438748D01*
%TO.C,J1*%
X161040000Y-79590000D02*
X161040000Y-87410000D01*
X161040000Y-85810000D02*
X161960000Y-85810000D01*
X161040000Y-87410000D02*
X161960000Y-87410000D01*
X161800000Y-81850000D02*
X162800000Y-81850000D01*
X161800000Y-83450000D02*
X161800000Y-81850000D01*
X161960000Y-85810000D02*
X162240000Y-85810000D01*
X161960000Y-87410000D02*
X161960000Y-85810000D01*
X162800000Y-81850000D02*
X162800000Y-83450000D01*
X162800000Y-83450000D02*
X161800000Y-83450000D01*
X163600000Y-83950000D02*
X163600000Y-79590000D01*
X166600000Y-79590000D02*
X166600000Y-83950000D01*
X166600000Y-83950000D02*
X163600000Y-83950000D01*
X167400000Y-81850000D02*
X167400000Y-79590000D01*
X167400000Y-81850000D02*
X167400000Y-83450000D01*
X167400000Y-83450000D02*
X168400000Y-83450000D01*
X167900000Y-81850000D02*
X167900000Y-79590000D01*
X167960000Y-85810000D02*
X167960000Y-87025000D01*
X167960000Y-85810000D02*
X168240000Y-85810000D01*
X168240000Y-85810000D02*
X168240000Y-87410000D01*
X168240000Y-87410000D02*
X169160000Y-87410000D01*
X168400000Y-81850000D02*
X167400000Y-81850000D01*
X168400000Y-83450000D02*
X168400000Y-81850000D01*
X169160000Y-79590000D02*
X161040000Y-79590000D01*
X169160000Y-85810000D02*
X168240000Y-85810000D01*
X169160000Y-87410000D02*
X169160000Y-79590000D01*
%TO.C,U4*%
X146265000Y-85025000D02*
X146265000Y-83075000D01*
X146265000Y-85025000D02*
X146265000Y-86975000D01*
X156385000Y-85025000D02*
X156385000Y-83075000D01*
X156385000Y-85025000D02*
X156385000Y-86975000D01*
X156660000Y-82565000D02*
X156330000Y-82325000D01*
X156660000Y-82085000D01*
X156660000Y-82565000D01*
G36*
X156660000Y-82565000D02*
G01*
X156330000Y-82325000D01*
X156660000Y-82085000D01*
X156660000Y-82565000D01*
G37*
%TO.C,R5*%
X162287742Y-109577500D02*
X162762258Y-109577500D01*
X162287742Y-110622500D02*
X162762258Y-110622500D01*
%TO.C,C2*%
X168290000Y-110440580D02*
X168290000Y-110159420D01*
X169310000Y-110440580D02*
X169310000Y-110159420D01*
%TO.C,R3*%
X152177500Y-110937258D02*
X152177500Y-110462742D01*
X153222500Y-110937258D02*
X153222500Y-110462742D01*
%TO.C,U2*%
X168000000Y-91280000D02*
X168620000Y-91280000D01*
X168620000Y-91280000D02*
X168620000Y-93400000D01*
X168620000Y-105400000D02*
X168620000Y-107520000D01*
X168620000Y-107520000D02*
X168000000Y-107520000D01*
%TO.C,R4*%
X165737258Y-109577500D02*
X165262742Y-109577500D01*
X165737258Y-110622500D02*
X165262742Y-110622500D01*
%TO.C,USB1*%
X159400000Y-115500000D02*
X159400000Y-117500000D01*
X168800000Y-115500000D02*
X168800000Y-117500000D01*
%TO.C,Q1*%
X155090000Y-109540000D02*
X156500000Y-109540000D01*
X155100000Y-111860000D02*
X156500000Y-111860000D01*
X154720000Y-109590000D02*
X154480000Y-109260000D01*
X154960000Y-109260000D01*
X154720000Y-109590000D01*
G36*
X154720000Y-109590000D02*
G01*
X154480000Y-109260000D01*
X154960000Y-109260000D01*
X154720000Y-109590000D01*
G37*
%TO.C,C1*%
X158559420Y-86990000D02*
X158840580Y-86990000D01*
X158559420Y-88010000D02*
X158840580Y-88010000D01*
%TD*%
M02*
