%TF.GenerationSoftware,KiCad,Pcbnew,8.0.3*%
%TF.CreationDate,2024-08-12T18:47:13+02:00*%
%TF.ProjectId,led-strip-connector,6c65642d-7374-4726-9970-2d636f6e6e65,rev?*%
%TF.SameCoordinates,Original*%
%TF.FileFunction,Copper,L2,Bot*%
%TF.FilePolarity,Positive*%
%FSLAX46Y46*%
G04 Gerber Fmt 4.6, Leading zero omitted, Abs format (unit mm)*
G04 Created by KiCad (PCBNEW 8.0.3) date 2024-08-12 18:47:13*
%MOMM*%
%LPD*%
G01*
G04 APERTURE LIST*
G04 Aperture macros list*
%AMRoundRect*
0 Rectangle with rounded corners*
0 $1 Rounding radius*
0 $2 $3 $4 $5 $6 $7 $8 $9 X,Y pos of 4 corners*
0 Add a 4 corners polygon primitive as box body*
4,1,4,$2,$3,$4,$5,$6,$7,$8,$9,$2,$3,0*
0 Add four circle primitives for the rounded corners*
1,1,$1+$1,$2,$3*
1,1,$1+$1,$4,$5*
1,1,$1+$1,$6,$7*
1,1,$1+$1,$8,$9*
0 Add four rect primitives between the rounded corners*
20,1,$1+$1,$2,$3,$4,$5,0*
20,1,$1+$1,$4,$5,$6,$7,0*
20,1,$1+$1,$6,$7,$8,$9,0*
20,1,$1+$1,$8,$9,$2,$3,0*%
G04 Aperture macros list end*
%TA.AperFunction,ComponentPad*%
%ADD10RoundRect,0.250000X0.350000X0.625000X-0.350000X0.625000X-0.350000X-0.625000X0.350000X-0.625000X0*%
%TD*%
%TA.AperFunction,ComponentPad*%
%ADD11O,1.200000X1.750000*%
%TD*%
%TA.AperFunction,ComponentPad*%
%ADD12O,1.000000X2.100000*%
%TD*%
%TA.AperFunction,ComponentPad*%
%ADD13O,1.000000X1.600000*%
%TD*%
%TA.AperFunction,ViaPad*%
%ADD14C,0.600000*%
%TD*%
%TA.AperFunction,ViaPad*%
%ADD15C,1.000000*%
%TD*%
%TA.AperFunction,Conductor*%
%ADD16C,1.000000*%
%TD*%
%TA.AperFunction,Conductor*%
%ADD17C,0.200000*%
%TD*%
G04 APERTURE END LIST*
D10*
%TO.P,J1,1,Pin_1*%
%TO.N,GND*%
X167100000Y-85950000D03*
D11*
%TO.P,J1,2,Pin_2*%
%TO.N,Net-(J1-Pin_2)*%
X165100000Y-85950000D03*
%TO.P,J1,3,Pin_3*%
%TO.N,+5V*%
X163100000Y-85950000D03*
%TD*%
D12*
%TO.P,USB1,S1,SHIELD*%
%TO.N,GND*%
X159780000Y-114270000D03*
D13*
X159780000Y-118450000D03*
D12*
X168420000Y-114270000D03*
D13*
X168420000Y-118450000D03*
%TD*%
D14*
%TO.N,GND*%
X156600200Y-83119100D03*
X165000000Y-90031700D03*
X145850000Y-113227000D03*
X167811000Y-110945000D03*
X155606000Y-115044000D03*
X167345000Y-90031700D03*
X165500000Y-109152000D03*
X159475000Y-86513400D03*
D15*
%TO.N,+5V*%
X162410000Y-111500000D03*
D14*
%TO.N,Net-(Q1B-C2)*%
X161012000Y-105234000D03*
X155843000Y-111764000D03*
%TO.N,Net-(USB1-CC1)*%
X162500000Y-115000000D03*
X160400000Y-110700000D03*
%TO.N,USBD+*%
X164400000Y-111900000D03*
X164500000Y-88500000D03*
%TD*%
D16*
%TO.N,+5V*%
X162410000Y-108790000D02*
X163100000Y-108100000D01*
X163100000Y-108100000D02*
X163100000Y-85950000D01*
X162410000Y-111500000D02*
X162410000Y-108790000D01*
D17*
%TO.N,Net-(Q1B-C2)*%
X161012000Y-105234000D02*
X161012000Y-106595000D01*
X161012000Y-106595000D02*
X155843000Y-111764000D01*
%TO.N,Net-(USB1-CC1)*%
X160400000Y-112038000D02*
X162500000Y-114138000D01*
X160400000Y-110700000D02*
X160400000Y-112038000D01*
X162500000Y-114138000D02*
X162500000Y-115000000D01*
%TO.N,USBD+*%
X164400000Y-88600000D02*
X164500000Y-88500000D01*
X164400000Y-111900000D02*
X164400000Y-88600000D01*
%TD*%
%TA.AperFunction,Conductor*%
%TO.N,GND*%
G36*
X171442539Y-79520185D02*
G01*
X171488294Y-79572989D01*
X171499500Y-79624500D01*
X171499500Y-120375500D01*
X171479815Y-120442539D01*
X171427011Y-120488294D01*
X171375500Y-120499500D01*
X144624500Y-120499500D01*
X144557461Y-120479815D01*
X144511706Y-120427011D01*
X144500500Y-120375500D01*
X144500500Y-118051504D01*
X158780000Y-118051504D01*
X158780000Y-118200000D01*
X159480000Y-118200000D01*
X159480000Y-118700000D01*
X158780000Y-118700000D01*
X158780000Y-118848495D01*
X158818427Y-119041681D01*
X158818430Y-119041693D01*
X158893807Y-119223671D01*
X158893814Y-119223684D01*
X159003248Y-119387462D01*
X159003251Y-119387466D01*
X159142533Y-119526748D01*
X159142537Y-119526751D01*
X159306315Y-119636185D01*
X159306328Y-119636192D01*
X159488308Y-119711569D01*
X159530000Y-119719862D01*
X159530000Y-118916988D01*
X159539940Y-118934205D01*
X159595795Y-118990060D01*
X159664204Y-119029556D01*
X159740504Y-119050000D01*
X159819496Y-119050000D01*
X159895796Y-119029556D01*
X159964205Y-118990060D01*
X160020060Y-118934205D01*
X160030000Y-118916988D01*
X160030000Y-119719862D01*
X160071690Y-119711569D01*
X160071692Y-119711569D01*
X160253671Y-119636192D01*
X160253684Y-119636185D01*
X160417462Y-119526751D01*
X160417466Y-119526748D01*
X160556748Y-119387466D01*
X160556751Y-119387462D01*
X160666185Y-119223684D01*
X160666192Y-119223671D01*
X160741569Y-119041693D01*
X160741572Y-119041681D01*
X160779999Y-118848495D01*
X160780000Y-118848492D01*
X160780000Y-118700000D01*
X160080000Y-118700000D01*
X160080000Y-118200000D01*
X160780000Y-118200000D01*
X160780000Y-118051508D01*
X160779999Y-118051504D01*
X167420000Y-118051504D01*
X167420000Y-118200000D01*
X168120000Y-118200000D01*
X168120000Y-118700000D01*
X167420000Y-118700000D01*
X167420000Y-118848495D01*
X167458427Y-119041681D01*
X167458430Y-119041693D01*
X167533807Y-119223671D01*
X167533814Y-119223684D01*
X167643248Y-119387462D01*
X167643251Y-119387466D01*
X167782533Y-119526748D01*
X167782537Y-119526751D01*
X167946315Y-119636185D01*
X167946328Y-119636192D01*
X168128308Y-119711569D01*
X168170000Y-119719862D01*
X168170000Y-118916988D01*
X168179940Y-118934205D01*
X168235795Y-118990060D01*
X168304204Y-119029556D01*
X168380504Y-119050000D01*
X168459496Y-119050000D01*
X168535796Y-119029556D01*
X168604205Y-118990060D01*
X168660060Y-118934205D01*
X168670000Y-118916988D01*
X168670000Y-119719862D01*
X168711690Y-119711569D01*
X168711692Y-119711569D01*
X168893671Y-119636192D01*
X168893684Y-119636185D01*
X169057462Y-119526751D01*
X169057466Y-119526748D01*
X169196748Y-119387466D01*
X169196751Y-119387462D01*
X169306185Y-119223684D01*
X169306192Y-119223671D01*
X169381569Y-119041693D01*
X169381572Y-119041681D01*
X169419999Y-118848495D01*
X169420000Y-118848492D01*
X169420000Y-118700000D01*
X168720000Y-118700000D01*
X168720000Y-118200000D01*
X169420000Y-118200000D01*
X169420000Y-118051508D01*
X169419999Y-118051504D01*
X169381572Y-117858318D01*
X169381569Y-117858306D01*
X169306192Y-117676328D01*
X169306185Y-117676315D01*
X169196751Y-117512537D01*
X169196748Y-117512533D01*
X169057466Y-117373251D01*
X169057462Y-117373248D01*
X168893684Y-117263814D01*
X168893671Y-117263807D01*
X168711691Y-117188429D01*
X168711683Y-117188427D01*
X168670000Y-117180135D01*
X168670000Y-117983011D01*
X168660060Y-117965795D01*
X168604205Y-117909940D01*
X168535796Y-117870444D01*
X168459496Y-117850000D01*
X168380504Y-117850000D01*
X168304204Y-117870444D01*
X168235795Y-117909940D01*
X168179940Y-117965795D01*
X168170000Y-117983011D01*
X168170000Y-117180136D01*
X168169999Y-117180135D01*
X168128316Y-117188427D01*
X168128308Y-117188429D01*
X167946328Y-117263807D01*
X167946315Y-117263814D01*
X167782537Y-117373248D01*
X167782533Y-117373251D01*
X167643251Y-117512533D01*
X167643248Y-117512537D01*
X167533814Y-117676315D01*
X167533807Y-117676328D01*
X167458430Y-117858306D01*
X167458427Y-117858318D01*
X167420000Y-118051504D01*
X160779999Y-118051504D01*
X160741572Y-117858318D01*
X160741569Y-117858306D01*
X160666192Y-117676328D01*
X160666185Y-117676315D01*
X160556751Y-117512537D01*
X160556748Y-117512533D01*
X160417466Y-117373251D01*
X160417462Y-117373248D01*
X160253684Y-117263814D01*
X160253671Y-117263807D01*
X160071691Y-117188429D01*
X160071683Y-117188427D01*
X160030000Y-117180135D01*
X160030000Y-117983011D01*
X160020060Y-117965795D01*
X159964205Y-117909940D01*
X159895796Y-117870444D01*
X159819496Y-117850000D01*
X159740504Y-117850000D01*
X159664204Y-117870444D01*
X159595795Y-117909940D01*
X159539940Y-117965795D01*
X159530000Y-117983011D01*
X159530000Y-117180136D01*
X159529999Y-117180135D01*
X159488316Y-117188427D01*
X159488308Y-117188429D01*
X159306328Y-117263807D01*
X159306315Y-117263814D01*
X159142537Y-117373248D01*
X159142533Y-117373251D01*
X159003251Y-117512533D01*
X159003248Y-117512537D01*
X158893814Y-117676315D01*
X158893807Y-117676328D01*
X158818430Y-117858306D01*
X158818427Y-117858318D01*
X158780000Y-118051504D01*
X144500500Y-118051504D01*
X144500500Y-113621504D01*
X158780000Y-113621504D01*
X158780000Y-114020000D01*
X159480000Y-114020000D01*
X159480000Y-114520000D01*
X158780000Y-114520000D01*
X158780000Y-114918495D01*
X158818427Y-115111681D01*
X158818430Y-115111693D01*
X158893807Y-115293671D01*
X158893814Y-115293684D01*
X159003248Y-115457462D01*
X159003251Y-115457466D01*
X159142533Y-115596748D01*
X159142537Y-115596751D01*
X159306315Y-115706185D01*
X159306328Y-115706192D01*
X159488308Y-115781569D01*
X159530000Y-115789862D01*
X159530000Y-114986988D01*
X159539940Y-115004205D01*
X159595795Y-115060060D01*
X159664204Y-115099556D01*
X159740504Y-115120000D01*
X159819496Y-115120000D01*
X159895796Y-115099556D01*
X159964205Y-115060060D01*
X160020060Y-115004205D01*
X160030000Y-114986988D01*
X160030000Y-115789862D01*
X160071690Y-115781569D01*
X160071692Y-115781569D01*
X160253671Y-115706192D01*
X160253684Y-115706185D01*
X160417462Y-115596751D01*
X160417466Y-115596748D01*
X160556748Y-115457466D01*
X160556751Y-115457462D01*
X160669574Y-115288613D01*
X160671007Y-115289570D01*
X160714198Y-115245580D01*
X160782332Y-115230103D01*
X160848018Y-115253919D01*
X160850089Y-115255697D01*
X160850189Y-115255568D01*
X160856630Y-115260510D01*
X160856635Y-115260515D01*
X160987865Y-115336281D01*
X161134234Y-115375500D01*
X161134236Y-115375500D01*
X161285764Y-115375500D01*
X161285766Y-115375500D01*
X161432135Y-115336281D01*
X161563365Y-115260515D01*
X161563371Y-115260508D01*
X161569084Y-115256125D01*
X161634251Y-115230926D01*
X161702697Y-115244959D01*
X161752690Y-115293769D01*
X161761619Y-115313540D01*
X161774208Y-115349519D01*
X161870184Y-115502262D01*
X161997738Y-115629816D01*
X162088080Y-115686582D01*
X162119289Y-115706192D01*
X162150478Y-115725789D01*
X162309888Y-115781569D01*
X162320745Y-115785368D01*
X162320750Y-115785369D01*
X162499996Y-115805565D01*
X162500000Y-115805565D01*
X162500004Y-115805565D01*
X162679249Y-115785369D01*
X162679252Y-115785368D01*
X162679255Y-115785368D01*
X162849522Y-115725789D01*
X163002262Y-115629816D01*
X163129816Y-115502262D01*
X163225789Y-115349522D01*
X163285368Y-115179255D01*
X163288285Y-115153365D01*
X163305565Y-115000003D01*
X163305565Y-114999996D01*
X163285369Y-114820750D01*
X163285368Y-114820745D01*
X163251597Y-114724234D01*
X166414500Y-114724234D01*
X166414500Y-114875765D01*
X166453719Y-115022136D01*
X166475615Y-115060060D01*
X166529485Y-115153365D01*
X166636635Y-115260515D01*
X166767865Y-115336281D01*
X166914234Y-115375500D01*
X166914236Y-115375500D01*
X167065764Y-115375500D01*
X167065766Y-115375500D01*
X167212135Y-115336281D01*
X167343365Y-115260515D01*
X167343372Y-115260507D01*
X167349811Y-115255568D01*
X167352044Y-115258478D01*
X167398258Y-115232865D01*
X167467980Y-115237411D01*
X167524176Y-115278930D01*
X167530394Y-115288634D01*
X167530426Y-115288613D01*
X167643248Y-115457462D01*
X167643251Y-115457466D01*
X167782533Y-115596748D01*
X167782537Y-115596751D01*
X167946315Y-115706185D01*
X167946328Y-115706192D01*
X168128308Y-115781569D01*
X168170000Y-115789862D01*
X168170000Y-114986988D01*
X168179940Y-115004205D01*
X168235795Y-115060060D01*
X168304204Y-115099556D01*
X168380504Y-115120000D01*
X168459496Y-115120000D01*
X168535796Y-115099556D01*
X168604205Y-115060060D01*
X168660060Y-115004205D01*
X168670000Y-114986988D01*
X168670000Y-115789862D01*
X168711690Y-115781569D01*
X168711692Y-115781569D01*
X168893671Y-115706192D01*
X168893684Y-115706185D01*
X169057462Y-115596751D01*
X169057466Y-115596748D01*
X169196748Y-115457466D01*
X169196751Y-115457462D01*
X169306185Y-115293684D01*
X169306192Y-115293671D01*
X169381569Y-115111693D01*
X169381572Y-115111681D01*
X169419999Y-114918495D01*
X169420000Y-114918492D01*
X169420000Y-114520000D01*
X168720000Y-114520000D01*
X168720000Y-114020000D01*
X169420000Y-114020000D01*
X169420000Y-113621508D01*
X169419999Y-113621504D01*
X169381572Y-113428318D01*
X169381569Y-113428306D01*
X169306192Y-113246328D01*
X169306185Y-113246315D01*
X169196751Y-113082537D01*
X169196748Y-113082533D01*
X169057466Y-112943251D01*
X169057462Y-112943248D01*
X168893684Y-112833814D01*
X168893671Y-112833807D01*
X168711691Y-112758429D01*
X168711683Y-112758427D01*
X168670000Y-112750135D01*
X168670000Y-113553011D01*
X168660060Y-113535795D01*
X168604205Y-113479940D01*
X168535796Y-113440444D01*
X168459496Y-113420000D01*
X168380504Y-113420000D01*
X168304204Y-113440444D01*
X168235795Y-113479940D01*
X168179940Y-113535795D01*
X168170000Y-113553011D01*
X168170000Y-112750136D01*
X168169999Y-112750135D01*
X168128316Y-112758427D01*
X168128308Y-112758429D01*
X167946328Y-112833807D01*
X167946315Y-112833814D01*
X167782537Y-112943248D01*
X167782533Y-112943251D01*
X167643251Y-113082533D01*
X167643248Y-113082537D01*
X167533814Y-113246315D01*
X167533807Y-113246328D01*
X167458430Y-113428306D01*
X167458427Y-113428318D01*
X167420000Y-113621504D01*
X167420000Y-114168955D01*
X167400315Y-114235994D01*
X167347511Y-114281749D01*
X167278353Y-114291693D01*
X167234000Y-114276342D01*
X167212138Y-114263720D01*
X167212135Y-114263719D01*
X167065766Y-114224500D01*
X166914234Y-114224500D01*
X166767863Y-114263719D01*
X166636635Y-114339485D01*
X166636632Y-114339487D01*
X166529487Y-114446632D01*
X166529485Y-114446635D01*
X166453719Y-114577863D01*
X166414500Y-114724234D01*
X163251597Y-114724234D01*
X163225789Y-114650478D01*
X163129816Y-114497738D01*
X163129814Y-114497736D01*
X163129813Y-114497734D01*
X163127550Y-114494896D01*
X163126659Y-114492715D01*
X163126111Y-114491842D01*
X163126264Y-114491745D01*
X163101144Y-114430209D01*
X163100500Y-114417587D01*
X163100500Y-114058945D01*
X163100500Y-114058943D01*
X163059577Y-113906216D01*
X163059573Y-113906209D01*
X162980524Y-113769290D01*
X162980521Y-113769286D01*
X162980520Y-113769284D01*
X162868716Y-113657480D01*
X162868715Y-113657479D01*
X162864385Y-113653149D01*
X162864374Y-113653139D01*
X161799512Y-112588277D01*
X161766027Y-112526954D01*
X161771011Y-112457262D01*
X161812883Y-112401329D01*
X161878347Y-112376912D01*
X161934645Y-112386034D01*
X161936081Y-112386629D01*
X161936086Y-112386632D01*
X161976103Y-112403207D01*
X161987091Y-112408404D01*
X162025273Y-112428814D01*
X162066710Y-112441383D01*
X162078160Y-112445480D01*
X162118165Y-112462051D01*
X162160640Y-112470499D01*
X162172414Y-112473448D01*
X162213868Y-112486024D01*
X162256964Y-112490268D01*
X162268990Y-112492052D01*
X162299480Y-112498117D01*
X162311458Y-112500500D01*
X162311459Y-112500500D01*
X162354756Y-112500500D01*
X162366909Y-112501096D01*
X162410000Y-112505341D01*
X162453090Y-112501096D01*
X162465244Y-112500500D01*
X162508542Y-112500500D01*
X162524454Y-112497334D01*
X162551005Y-112492053D01*
X162563037Y-112490268D01*
X162606132Y-112486024D01*
X162647580Y-112473450D01*
X162659353Y-112470500D01*
X162701835Y-112462051D01*
X162741847Y-112445476D01*
X162753280Y-112441386D01*
X162794727Y-112428814D01*
X162832918Y-112408399D01*
X162843910Y-112403201D01*
X162883914Y-112386632D01*
X162919938Y-112362560D01*
X162930351Y-112356320D01*
X162956591Y-112342295D01*
X162968535Y-112335912D01*
X162968539Y-112335909D01*
X163002005Y-112308444D01*
X163011782Y-112301193D01*
X163047781Y-112277140D01*
X163047783Y-112277138D01*
X163055137Y-112269784D01*
X163078408Y-112246512D01*
X163087402Y-112238359D01*
X163120883Y-112210883D01*
X163148359Y-112177402D01*
X163156512Y-112168408D01*
X163187139Y-112137782D01*
X163211193Y-112101781D01*
X163218444Y-112092005D01*
X163245909Y-112058539D01*
X163245912Y-112058535D01*
X163253240Y-112044824D01*
X163266320Y-112020351D01*
X163272560Y-112009938D01*
X163296632Y-111973914D01*
X163313202Y-111933906D01*
X163318402Y-111922913D01*
X163338814Y-111884727D01*
X163351386Y-111843280D01*
X163355482Y-111831834D01*
X163358149Y-111825395D01*
X163401988Y-111770993D01*
X163468282Y-111748928D01*
X163535982Y-111766207D01*
X163583593Y-111817344D01*
X163595999Y-111886103D01*
X163595930Y-111886729D01*
X163594435Y-111900000D01*
X163594435Y-111900003D01*
X163614630Y-112079249D01*
X163614631Y-112079254D01*
X163674211Y-112249523D01*
X163759987Y-112386034D01*
X163770184Y-112402262D01*
X163897738Y-112529816D01*
X164050478Y-112625789D01*
X164203772Y-112679429D01*
X164220745Y-112685368D01*
X164220750Y-112685369D01*
X164399996Y-112705565D01*
X164400000Y-112705565D01*
X164400004Y-112705565D01*
X164579249Y-112685369D01*
X164579252Y-112685368D01*
X164579255Y-112685368D01*
X164749522Y-112625789D01*
X164902262Y-112529816D01*
X165029816Y-112402262D01*
X165125789Y-112249522D01*
X165185368Y-112079255D01*
X165187702Y-112058539D01*
X165205565Y-111900003D01*
X165205565Y-111899996D01*
X165185369Y-111720750D01*
X165185368Y-111720745D01*
X165176756Y-111696134D01*
X165125789Y-111550478D01*
X165029816Y-111397738D01*
X165029814Y-111397736D01*
X165029813Y-111397734D01*
X165027550Y-111394896D01*
X165026659Y-111392715D01*
X165026111Y-111391842D01*
X165026264Y-111391745D01*
X165001144Y-111330209D01*
X165000500Y-111317587D01*
X165000500Y-89182940D01*
X165020185Y-89115901D01*
X165036819Y-89095259D01*
X165129816Y-89002262D01*
X165225789Y-88849522D01*
X165285368Y-88679255D01*
X165305565Y-88500000D01*
X165285368Y-88320745D01*
X165225789Y-88150478D01*
X165129816Y-87997738D01*
X165002262Y-87870184D01*
X164899500Y-87805614D01*
X164849523Y-87774211D01*
X164679254Y-87714631D01*
X164679249Y-87714630D01*
X164500004Y-87694435D01*
X164499996Y-87694435D01*
X164320750Y-87714630D01*
X164320739Y-87714633D01*
X164265453Y-87733978D01*
X164195674Y-87737539D01*
X164135047Y-87702809D01*
X164102821Y-87640816D01*
X164100500Y-87616936D01*
X164100500Y-87081204D01*
X164120185Y-87014165D01*
X164172989Y-86968410D01*
X164242147Y-86958466D01*
X164305703Y-86987491D01*
X164312181Y-86993523D01*
X164383072Y-87064414D01*
X164523212Y-87166232D01*
X164677555Y-87244873D01*
X164842299Y-87298402D01*
X165013389Y-87325500D01*
X165013390Y-87325500D01*
X165186610Y-87325500D01*
X165186611Y-87325500D01*
X165357701Y-87298402D01*
X165522445Y-87244873D01*
X165676788Y-87166232D01*
X165816928Y-87064414D01*
X165924836Y-86956505D01*
X165986155Y-86923023D01*
X166055847Y-86928007D01*
X166111781Y-86969878D01*
X166118053Y-86979093D01*
X166157682Y-87043343D01*
X166281654Y-87167315D01*
X166430875Y-87259356D01*
X166430880Y-87259358D01*
X166597302Y-87314505D01*
X166597309Y-87314506D01*
X166700019Y-87324999D01*
X166849999Y-87324999D01*
X166850000Y-87324998D01*
X166850000Y-86230330D01*
X166869745Y-86250075D01*
X166955255Y-86299444D01*
X167050630Y-86325000D01*
X167149370Y-86325000D01*
X167244745Y-86299444D01*
X167330255Y-86250075D01*
X167350000Y-86230330D01*
X167350000Y-87324999D01*
X167499972Y-87324999D01*
X167499986Y-87324998D01*
X167602697Y-87314505D01*
X167769119Y-87259358D01*
X167769124Y-87259356D01*
X167918345Y-87167315D01*
X168042315Y-87043345D01*
X168134356Y-86894124D01*
X168134358Y-86894119D01*
X168189505Y-86727697D01*
X168189506Y-86727690D01*
X168199999Y-86624986D01*
X168200000Y-86624973D01*
X168200000Y-86200000D01*
X167380330Y-86200000D01*
X167400075Y-86180255D01*
X167449444Y-86094745D01*
X167475000Y-85999370D01*
X167475000Y-85900630D01*
X167449444Y-85805255D01*
X167400075Y-85719745D01*
X167380330Y-85700000D01*
X168199999Y-85700000D01*
X168199999Y-85275028D01*
X168199998Y-85275013D01*
X168189505Y-85172302D01*
X168134358Y-85005880D01*
X168134356Y-85005875D01*
X168042315Y-84856654D01*
X167918345Y-84732684D01*
X167769124Y-84640643D01*
X167769119Y-84640641D01*
X167602697Y-84585494D01*
X167602690Y-84585493D01*
X167499986Y-84575000D01*
X167350000Y-84575000D01*
X167350000Y-85669670D01*
X167330255Y-85649925D01*
X167244745Y-85600556D01*
X167149370Y-85575000D01*
X167050630Y-85575000D01*
X166955255Y-85600556D01*
X166869745Y-85649925D01*
X166850000Y-85669670D01*
X166850000Y-84575000D01*
X166700027Y-84575000D01*
X166700012Y-84575001D01*
X166597302Y-84585494D01*
X166430880Y-84640641D01*
X166430875Y-84640643D01*
X166281654Y-84732684D01*
X166157684Y-84856654D01*
X166118053Y-84920907D01*
X166066105Y-84967631D01*
X165997142Y-84978853D01*
X165933060Y-84951010D01*
X165924833Y-84943491D01*
X165816930Y-84835588D01*
X165816928Y-84835586D01*
X165676788Y-84733768D01*
X165522445Y-84655127D01*
X165357701Y-84601598D01*
X165357699Y-84601597D01*
X165357698Y-84601597D01*
X165226271Y-84580781D01*
X165186611Y-84574500D01*
X165013389Y-84574500D01*
X164973728Y-84580781D01*
X164842302Y-84601597D01*
X164677552Y-84655128D01*
X164523211Y-84733768D01*
X164443256Y-84791859D01*
X164383072Y-84835586D01*
X164383070Y-84835588D01*
X164383069Y-84835588D01*
X164260588Y-84958069D01*
X164260581Y-84958078D01*
X164200317Y-85041023D01*
X164144987Y-85083689D01*
X164075374Y-85089667D01*
X164013579Y-85057061D01*
X163999683Y-85041023D01*
X163939418Y-84958078D01*
X163939414Y-84958072D01*
X163816928Y-84835586D01*
X163676788Y-84733768D01*
X163522445Y-84655127D01*
X163357701Y-84601598D01*
X163357699Y-84601597D01*
X163357698Y-84601597D01*
X163226271Y-84580781D01*
X163186611Y-84574500D01*
X163013389Y-84574500D01*
X162973728Y-84580781D01*
X162842302Y-84601597D01*
X162677552Y-84655128D01*
X162523211Y-84733768D01*
X162443256Y-84791859D01*
X162383072Y-84835586D01*
X162383070Y-84835588D01*
X162383069Y-84835588D01*
X162260588Y-84958069D01*
X162260588Y-84958070D01*
X162260586Y-84958072D01*
X162260582Y-84958078D01*
X162158768Y-85098211D01*
X162080128Y-85252552D01*
X162026597Y-85417302D01*
X161999500Y-85588389D01*
X161999500Y-86311610D01*
X162026597Y-86482697D01*
X162072829Y-86624986D01*
X162080127Y-86647445D01*
X162085983Y-86658939D01*
X162099500Y-86715235D01*
X162099500Y-107634217D01*
X162079815Y-107701256D01*
X162063181Y-107721898D01*
X161772220Y-108012859D01*
X161772218Y-108012861D01*
X161702538Y-108082540D01*
X161632859Y-108152219D01*
X161523371Y-108316079D01*
X161523364Y-108316092D01*
X161447950Y-108498160D01*
X161447947Y-108498170D01*
X161409500Y-108691456D01*
X161409500Y-110431463D01*
X161389815Y-110498502D01*
X161337011Y-110544257D01*
X161267853Y-110554201D01*
X161204297Y-110525176D01*
X161168459Y-110472418D01*
X161125790Y-110350480D01*
X161125789Y-110350478D01*
X161029816Y-110197738D01*
X160902262Y-110070184D01*
X160749523Y-109974211D01*
X160579254Y-109914631D01*
X160579249Y-109914630D01*
X160400004Y-109894435D01*
X160399996Y-109894435D01*
X160220750Y-109914630D01*
X160220745Y-109914631D01*
X160050476Y-109974211D01*
X159897737Y-110070184D01*
X159770184Y-110197737D01*
X159674211Y-110350476D01*
X159614631Y-110520745D01*
X159614630Y-110520750D01*
X159594435Y-110699996D01*
X159594435Y-110700003D01*
X159614630Y-110879249D01*
X159614631Y-110879254D01*
X159674211Y-111049523D01*
X159770185Y-111202263D01*
X159772445Y-111205097D01*
X159773334Y-111207275D01*
X159773889Y-111208158D01*
X159773734Y-111208255D01*
X159798855Y-111269783D01*
X159799500Y-111282412D01*
X159799500Y-111951330D01*
X159799499Y-111951348D01*
X159799499Y-112117054D01*
X159799498Y-112117054D01*
X159805770Y-112140460D01*
X159840423Y-112269785D01*
X159844669Y-112277139D01*
X159844670Y-112277140D01*
X159844670Y-112277141D01*
X159919477Y-112406712D01*
X159919481Y-112406717D01*
X160038349Y-112525585D01*
X160038355Y-112525590D01*
X160061179Y-112548414D01*
X160094664Y-112609737D01*
X160089680Y-112679429D01*
X160052162Y-112731949D01*
X160030000Y-112750136D01*
X160030000Y-113553011D01*
X160020060Y-113535795D01*
X159964205Y-113479940D01*
X159895796Y-113440444D01*
X159819496Y-113420000D01*
X159740504Y-113420000D01*
X159664204Y-113440444D01*
X159595795Y-113479940D01*
X159539940Y-113535795D01*
X159530000Y-113553011D01*
X159530000Y-112750136D01*
X159529999Y-112750135D01*
X159488316Y-112758427D01*
X159488308Y-112758429D01*
X159306328Y-112833807D01*
X159306315Y-112833814D01*
X159142537Y-112943248D01*
X159142533Y-112943251D01*
X159003251Y-113082533D01*
X159003248Y-113082537D01*
X158893814Y-113246315D01*
X158893807Y-113246328D01*
X158818430Y-113428306D01*
X158818427Y-113428318D01*
X158780000Y-113621504D01*
X144500500Y-113621504D01*
X144500500Y-111763996D01*
X155037435Y-111763996D01*
X155037435Y-111764003D01*
X155057630Y-111943249D01*
X155057631Y-111943254D01*
X155117211Y-112113523D01*
X155202666Y-112249523D01*
X155213184Y-112266262D01*
X155340738Y-112393816D01*
X155396437Y-112428814D01*
X155467482Y-112473455D01*
X155493478Y-112489789D01*
X155607866Y-112529815D01*
X155663745Y-112549368D01*
X155663750Y-112549369D01*
X155842996Y-112569565D01*
X155843000Y-112569565D01*
X155843004Y-112569565D01*
X156022249Y-112549369D01*
X156022252Y-112549368D01*
X156022255Y-112549368D01*
X156192522Y-112489789D01*
X156345262Y-112393816D01*
X156472816Y-112266262D01*
X156568789Y-112113522D01*
X156628368Y-111943255D01*
X156638161Y-111856329D01*
X156665226Y-111791918D01*
X156673690Y-111782543D01*
X161380713Y-107075521D01*
X161380716Y-107075520D01*
X161492520Y-106963716D01*
X161542639Y-106876904D01*
X161571577Y-106826785D01*
X161612501Y-106674057D01*
X161612501Y-106515943D01*
X161612501Y-106508348D01*
X161612500Y-106508330D01*
X161612500Y-105816412D01*
X161632185Y-105749373D01*
X161639555Y-105739097D01*
X161641810Y-105736267D01*
X161641816Y-105736262D01*
X161737789Y-105583522D01*
X161797368Y-105413255D01*
X161817565Y-105234000D01*
X161797368Y-105054745D01*
X161737789Y-104884478D01*
X161641816Y-104731738D01*
X161514262Y-104604184D01*
X161361523Y-104508211D01*
X161191254Y-104448631D01*
X161191249Y-104448630D01*
X161012004Y-104428435D01*
X161011996Y-104428435D01*
X160832750Y-104448630D01*
X160832745Y-104448631D01*
X160662476Y-104508211D01*
X160509737Y-104604184D01*
X160382184Y-104731737D01*
X160286211Y-104884476D01*
X160226631Y-105054745D01*
X160226630Y-105054750D01*
X160206435Y-105233996D01*
X160206435Y-105234003D01*
X160226630Y-105413249D01*
X160226631Y-105413254D01*
X160286211Y-105583523D01*
X160382185Y-105736263D01*
X160384445Y-105739097D01*
X160385334Y-105741275D01*
X160385889Y-105742158D01*
X160385734Y-105742255D01*
X160410855Y-105803783D01*
X160411500Y-105816412D01*
X160411500Y-106294902D01*
X160391815Y-106361941D01*
X160375181Y-106382583D01*
X155824465Y-110933298D01*
X155763142Y-110966783D01*
X155750668Y-110968837D01*
X155663750Y-110978630D01*
X155493478Y-111038210D01*
X155340737Y-111134184D01*
X155213184Y-111261737D01*
X155117211Y-111414476D01*
X155057631Y-111584745D01*
X155057630Y-111584750D01*
X155037435Y-111763996D01*
X144500500Y-111763996D01*
X144500500Y-107644000D01*
X144520185Y-107576961D01*
X144572989Y-107531206D01*
X144624500Y-107520000D01*
X151700000Y-107520000D01*
X151700000Y-91280000D01*
X144624500Y-91280000D01*
X144557461Y-91260315D01*
X144511706Y-91207511D01*
X144500500Y-91156000D01*
X144500500Y-79624500D01*
X144520185Y-79557461D01*
X144572989Y-79511706D01*
X144624500Y-79500500D01*
X169934108Y-79500500D01*
X171375500Y-79500500D01*
X171442539Y-79520185D01*
G37*
%TD.AperFunction*%
%TD*%
M02*
