%TF.GenerationSoftware,KiCad,Pcbnew,8.0.3*%
%TF.CreationDate,2024-08-12T18:47:13+02:00*%
%TF.ProjectId,led-strip-connector,6c65642d-7374-4726-9970-2d636f6e6e65,rev?*%
%TF.SameCoordinates,Original*%
%TF.FileFunction,Paste,Top*%
%TF.FilePolarity,Positive*%
%FSLAX46Y46*%
G04 Gerber Fmt 4.6, Leading zero omitted, Abs format (unit mm)*
G04 Created by KiCad (PCBNEW 8.0.3) date 2024-08-12 18:47:13*
%MOMM*%
%LPD*%
G01*
G04 APERTURE LIST*
G04 Aperture macros list*
%AMRoundRect*
0 Rectangle with rounded corners*
0 $1 Rounding radius*
0 $2 $3 $4 $5 $6 $7 $8 $9 X,Y pos of 4 corners*
0 Add a 4 corners polygon primitive as box body*
4,1,4,$2,$3,$4,$5,$6,$7,$8,$9,$2,$3,0*
0 Add four circle primitives for the rounded corners*
1,1,$1+$1,$2,$3*
1,1,$1+$1,$4,$5*
1,1,$1+$1,$6,$7*
1,1,$1+$1,$8,$9*
0 Add four rect primitives between the rounded corners*
20,1,$1+$1,$2,$3,$4,$5,0*
20,1,$1+$1,$4,$5,$6,$7,0*
20,1,$1+$1,$6,$7,$8,$9,0*
20,1,$1+$1,$8,$9,$2,$3,0*%
G04 Aperture macros list end*
%ADD10RoundRect,0.250000X-0.475000X0.250000X-0.475000X-0.250000X0.475000X-0.250000X0.475000X0.250000X0*%
%ADD11RoundRect,0.200000X-0.275000X0.200000X-0.275000X-0.200000X0.275000X-0.200000X0.275000X0.200000X0*%
%ADD12RoundRect,0.200000X-0.200000X-0.275000X0.200000X-0.275000X0.200000X0.275000X-0.200000X0.275000X0*%
%ADD13RoundRect,0.375000X-0.625000X-0.375000X0.625000X-0.375000X0.625000X0.375000X-0.625000X0.375000X0*%
%ADD14RoundRect,0.500000X-0.500000X-1.400000X0.500000X-1.400000X0.500000X1.400000X-0.500000X1.400000X0*%
%ADD15RoundRect,0.250000X0.475000X-0.250000X0.475000X0.250000X-0.475000X0.250000X-0.475000X-0.250000X0*%
%ADD16RoundRect,0.150000X-0.150000X0.825000X-0.150000X-0.825000X0.150000X-0.825000X0.150000X0.825000X0*%
%ADD17RoundRect,0.225000X0.250000X-0.225000X0.250000X0.225000X-0.250000X0.225000X-0.250000X-0.225000X0*%
%ADD18RoundRect,0.200000X0.275000X-0.200000X0.275000X0.200000X-0.275000X0.200000X-0.275000X-0.200000X0*%
%ADD19R,1.000000X2.500000*%
%ADD20R,1.800000X1.000000*%
%ADD21RoundRect,0.200000X0.200000X0.275000X-0.200000X0.275000X-0.200000X-0.275000X0.200000X-0.275000X0*%
%ADD22R,0.600000X1.450000*%
%ADD23R,0.300000X1.450000*%
%ADD24RoundRect,0.100000X-0.225000X-0.100000X0.225000X-0.100000X0.225000X0.100000X-0.225000X0.100000X0*%
%ADD25RoundRect,0.225000X-0.225000X-0.250000X0.225000X-0.250000X0.225000X0.250000X-0.225000X0.250000X0*%
G04 APERTURE END LIST*
D10*
%TO.C,C4*%
X154700000Y-114050000D03*
X154700000Y-115950000D03*
%TD*%
D11*
%TO.C,R2*%
X158600000Y-109875000D03*
X158600000Y-111525000D03*
%TD*%
D12*
%TO.C,R1*%
X157875000Y-89200000D03*
X159525000Y-89200000D03*
%TD*%
D13*
%TO.C,U3*%
X145850000Y-114500000D03*
X145850000Y-116800000D03*
D14*
X152150000Y-116800000D03*
D13*
X145850000Y-119100000D03*
%TD*%
D15*
%TO.C,C3*%
X154700000Y-119650000D03*
X154700000Y-117750000D03*
%TD*%
D16*
%TO.C,U4*%
X155770000Y-82550000D03*
X154500000Y-82550000D03*
X153230000Y-82550000D03*
X151960000Y-82550000D03*
X150690000Y-82550000D03*
X149420000Y-82550000D03*
X148150000Y-82550000D03*
X146880000Y-82550000D03*
X146880000Y-87500000D03*
X148150000Y-87500000D03*
X149420000Y-87500000D03*
X150690000Y-87500000D03*
X151960000Y-87500000D03*
X153230000Y-87500000D03*
X154500000Y-87500000D03*
X155770000Y-87500000D03*
%TD*%
D12*
%TO.C,R5*%
X161700000Y-110100000D03*
X163350000Y-110100000D03*
%TD*%
D17*
%TO.C,C2*%
X168800000Y-111075000D03*
X168800000Y-109525000D03*
%TD*%
D18*
%TO.C,R3*%
X152700000Y-111525000D03*
X152700000Y-109875000D03*
%TD*%
D19*
%TO.C,U2*%
X153000000Y-107000000D03*
X155000000Y-107000000D03*
X157000000Y-107000000D03*
X159000000Y-107000000D03*
X161000000Y-107000000D03*
X163000000Y-107000000D03*
X165000000Y-107000000D03*
X167000000Y-107000000D03*
D20*
X168500000Y-104400000D03*
X168500000Y-102400000D03*
X168500000Y-100400000D03*
X168500000Y-98400000D03*
X168500000Y-96400000D03*
X168500000Y-94400000D03*
D19*
X167000000Y-91800000D03*
X165000000Y-91800000D03*
X163000000Y-91800000D03*
X161000000Y-91800000D03*
X159000000Y-91800000D03*
X157000000Y-91800000D03*
X155000000Y-91800000D03*
X153000000Y-91800000D03*
%TD*%
D21*
%TO.C,R4*%
X166325000Y-110100000D03*
X164675000Y-110100000D03*
%TD*%
D22*
%TO.C,USB1*%
X160850000Y-113355000D03*
X161650000Y-113355000D03*
D23*
X162850000Y-113355000D03*
X163850000Y-113355000D03*
X164350000Y-113355000D03*
X165350000Y-113355000D03*
D22*
X166550000Y-113355000D03*
X167350000Y-113355000D03*
X167350000Y-113355000D03*
X166550000Y-113355000D03*
D23*
X165850000Y-113355000D03*
X164850000Y-113355000D03*
X163350000Y-113355000D03*
X162350000Y-113355000D03*
D22*
X161650000Y-113355000D03*
X160850000Y-113355000D03*
%TD*%
D24*
%TO.C,Q1*%
X154850000Y-110050000D03*
X154850000Y-110700000D03*
X154850000Y-111350000D03*
X156750000Y-111350000D03*
X156750000Y-110700000D03*
X156750000Y-110050000D03*
%TD*%
D25*
%TO.C,C1*%
X157925000Y-87500000D03*
X159475000Y-87500000D03*
%TD*%
M02*
