%TF.GenerationSoftware,KiCad,Pcbnew,8.0.2*%
%TF.CreationDate,2024-05-04T20:25:50+02:00*%
%TF.ProjectId,led-strip-connector,6c65642d-7374-4726-9970-2d636f6e6e65,rev?*%
%TF.SameCoordinates,Original*%
%TF.FileFunction,Copper,L1,Top*%
%TF.FilePolarity,Positive*%
%FSLAX46Y46*%
G04 Gerber Fmt 4.6, Leading zero omitted, Abs format (unit mm)*
G04 Created by KiCad (PCBNEW 8.0.2) date 2024-05-04 20:25:50*
%MOMM*%
%LPD*%
G01*
G04 APERTURE LIST*
G04 Aperture macros list*
%AMRoundRect*
0 Rectangle with rounded corners*
0 $1 Rounding radius*
0 $2 $3 $4 $5 $6 $7 $8 $9 X,Y pos of 4 corners*
0 Add a 4 corners polygon primitive as box body*
4,1,4,$2,$3,$4,$5,$6,$7,$8,$9,$2,$3,0*
0 Add four circle primitives for the rounded corners*
1,1,$1+$1,$2,$3*
1,1,$1+$1,$4,$5*
1,1,$1+$1,$6,$7*
1,1,$1+$1,$8,$9*
0 Add four rect primitives between the rounded corners*
20,1,$1+$1,$2,$3,$4,$5,0*
20,1,$1+$1,$4,$5,$6,$7,0*
20,1,$1+$1,$6,$7,$8,$9,0*
20,1,$1+$1,$8,$9,$2,$3,0*%
G04 Aperture macros list end*
%TA.AperFunction,ComponentPad*%
%ADD10C,1.800000*%
%TD*%
%TA.AperFunction,ComponentPad*%
%ADD11RoundRect,0.249999X-1.550001X0.790001X-1.550001X-0.790001X1.550001X-0.790001X1.550001X0.790001X0*%
%TD*%
%TA.AperFunction,ComponentPad*%
%ADD12O,3.600000X2.080000*%
%TD*%
%TA.AperFunction,ComponentPad*%
%ADD13C,1.600000*%
%TD*%
%TA.AperFunction,ComponentPad*%
%ADD14O,1.600000X1.600000*%
%TD*%
%TA.AperFunction,Conductor*%
%ADD15C,1.000000*%
%TD*%
G04 APERTURE END LIST*
D10*
%TO.P,U1,1,A0(ADC0)*%
%TO.N,unconnected-(U1-A0(ADC0)-Pad1)*%
X129910000Y-79710000D03*
%TO.P,U1,2,RSV*%
%TO.N,unconnected-(U1-RSV-Pad2)*%
X129910000Y-82250000D03*
%TO.P,U1,3,RSV*%
%TO.N,unconnected-(U1-RSV-Pad3)*%
X129910000Y-84790000D03*
%TO.P,U1,4,SD3(GPIO10)*%
%TO.N,unconnected-(U1-SD3(GPIO10)-Pad4)*%
X129910000Y-87330000D03*
%TO.P,U1,5,SD2(GPIO9)*%
%TO.N,unconnected-(U1-SD2(GPIO9)-Pad5)*%
X129910000Y-89870000D03*
%TO.P,U1,6,SD1(MOSI)*%
%TO.N,unconnected-(U1-SD1(MOSI)-Pad6)*%
X129910000Y-92410000D03*
%TO.P,U1,7,CMD(CS)*%
%TO.N,unconnected-(U1-CMD(CS)-Pad7)*%
X129910000Y-94950000D03*
%TO.P,U1,8,SDO(MISO)*%
%TO.N,unconnected-(U1-SDO(MISO)-Pad8)*%
X129910000Y-97490000D03*
%TO.P,U1,9,CLK(SCLK)*%
%TO.N,unconnected-(U1-CLK(SCLK)-Pad9)*%
X129910000Y-100030000D03*
%TO.P,U1,10,GND*%
%TO.N,GND*%
X129910000Y-102570000D03*
%TO.P,U1,11,3.3V*%
%TO.N,unconnected-(U1-3.3V-Pad11)*%
X129910000Y-105110000D03*
%TO.P,U1,12,EN*%
%TO.N,unconnected-(U1-EN-Pad12)*%
X129910000Y-107650000D03*
%TO.P,U1,13,RST*%
%TO.N,unconnected-(U1-RST-Pad13)*%
X129910000Y-110190000D03*
%TO.P,U1,14,GND*%
%TO.N,GND*%
X129910000Y-112730000D03*
%TO.P,U1,15,VIN*%
%TO.N,+5V*%
X129910000Y-115270000D03*
%TO.P,U1,16,3.3V*%
%TO.N,unconnected-(U1-3.3V-Pad16)*%
X153405000Y-115270000D03*
%TO.P,U1,17,GND*%
%TO.N,GND*%
X153405000Y-112730000D03*
%TO.P,U1,18,TX(GPIO1)*%
%TO.N,unconnected-(U1-TX(GPIO1)-Pad18)*%
X153405000Y-110190000D03*
%TO.P,U1,19,RX(DPIO3)*%
%TO.N,unconnected-(U1-RX(DPIO3)-Pad19)*%
X153405000Y-107650000D03*
%TO.P,U1,20,D8(GPIO15)*%
%TO.N,unconnected-(U1-D8(GPIO15)-Pad20)*%
X153405000Y-105110000D03*
%TO.P,U1,21,D7(GPIO13)*%
%TO.N,unconnected-(U1-D7(GPIO13)-Pad21)*%
X153405000Y-102570000D03*
%TO.P,U1,22,D6(GPIO12)*%
%TO.N,unconnected-(U1-D6(GPIO12)-Pad22)*%
X153405000Y-100030000D03*
%TO.P,U1,23,D5(GPIO14)*%
%TO.N,unconnected-(U1-D5(GPIO14)-Pad23)*%
X153405000Y-97490000D03*
%TO.P,U1,24,GND*%
%TO.N,GND*%
X153405000Y-94950000D03*
%TO.P,U1,25,3.3V*%
%TO.N,unconnected-(U1-3.3V-Pad25)*%
X153405000Y-92410000D03*
%TO.P,U1,26,D4(GPIO2)*%
%TO.N,unconnected-(U1-D4(GPIO2)-Pad26)*%
X153405000Y-89870000D03*
%TO.P,U1,27,D3(GPIO0)*%
%TO.N,unconnected-(U1-D3(GPIO0)-Pad27)*%
X153405000Y-87330000D03*
%TO.P,U1,28,D2(GPIO4)*%
%TO.N,unconnected-(U1-D2(GPIO4)-Pad28)*%
X153405000Y-84790000D03*
%TO.P,U1,29,D1(GPIO5)*%
%TO.N,Net-(U1-D1(GPIO5))*%
X153405000Y-82250000D03*
%TO.P,U1,30,D0(GPIO16)*%
%TO.N,unconnected-(U1-D0(GPIO16)-Pad30)*%
X153405000Y-79710000D03*
%TD*%
D11*
%TO.P,J2,1,Pin_1*%
%TO.N,GND*%
X161060000Y-103320000D03*
D12*
%TO.P,J2,2,Pin_2*%
%TO.N,unconnected-(J2-Pin_2-Pad2)*%
X161060000Y-108400000D03*
%TO.P,J2,3,Pin_3*%
%TO.N,+5V*%
X161060000Y-113480000D03*
%TD*%
D13*
%TO.P,R1,1*%
%TO.N,Net-(U1-D1(GPIO5))*%
X157380000Y-77000000D03*
D14*
%TO.P,R1,2*%
%TO.N,Net-(J1-Pin_2)*%
X165000000Y-77000000D03*
%TD*%
D11*
%TO.P,J1,1,Pin_1*%
%TO.N,GND*%
X161037500Y-84820000D03*
D12*
%TO.P,J1,2,Pin_2*%
%TO.N,Net-(J1-Pin_2)*%
X161037500Y-89900000D03*
%TO.P,J1,3,Pin_3*%
%TO.N,+5V*%
X161037500Y-94980000D03*
%TD*%
D15*
%TO.N,GND*%
X140000000Y-112000000D02*
X140000000Y-106000000D01*
X156000000Y-112000000D02*
X156000000Y-108000000D01*
X139500000Y-112500000D02*
X139270000Y-112730000D01*
X129910000Y-112730000D02*
X139270000Y-112730000D01*
X140500000Y-112500000D02*
X139500000Y-112500000D01*
X156000000Y-108000000D02*
X160680000Y-103320000D01*
X160108750Y-84820000D02*
X161037500Y-84820000D01*
X140730000Y-112730000D02*
X140500000Y-112500000D01*
X153405000Y-94950000D02*
X155050000Y-94950000D01*
X139270000Y-112730000D02*
X140000000Y-112000000D01*
X156000000Y-94000000D02*
X156000000Y-88928750D01*
X160680000Y-103320000D02*
X161060000Y-103320000D01*
X156000000Y-88928750D02*
X160108750Y-84820000D01*
X156000000Y-95900000D02*
X156000000Y-99130000D01*
X153405000Y-112730000D02*
X155270000Y-112730000D01*
X136570000Y-102570000D02*
X140000000Y-106000000D01*
X155270000Y-112730000D02*
X156000000Y-112000000D01*
X129910000Y-102570000D02*
X136570000Y-102570000D01*
X140000000Y-112000000D02*
X140730000Y-112730000D01*
X156000000Y-99130000D02*
X160190000Y-103320000D01*
X155050000Y-94950000D02*
X156000000Y-94000000D01*
X140730000Y-112730000D02*
X153405000Y-112730000D01*
X155050000Y-94950000D02*
X156000000Y-95900000D01*
X160190000Y-103320000D02*
X161060000Y-103320000D01*
%TO.N,Net-(J1-Pin_2)*%
X165000000Y-85937500D02*
X161037500Y-89900000D01*
X165000000Y-77000000D02*
X165000000Y-85937500D01*
%TO.N,+5V*%
X161037500Y-98037500D02*
X165000000Y-102000000D01*
X129910000Y-115270000D02*
X147270000Y-115270000D01*
X165000000Y-102000000D02*
X165000000Y-109540000D01*
X161037500Y-94980000D02*
X161037500Y-98037500D01*
X147270000Y-115270000D02*
X150000000Y-118000000D01*
X150000000Y-118000000D02*
X159000000Y-118000000D01*
X159000000Y-118000000D02*
X161060000Y-115940000D01*
X165000000Y-109540000D02*
X161060000Y-113480000D01*
X161060000Y-115940000D02*
X161060000Y-113480000D01*
%TO.N,Net-(U1-D1(GPIO5))*%
X154750000Y-82250000D02*
X157380000Y-79620000D01*
X157380000Y-79620000D02*
X157380000Y-77000000D01*
X153405000Y-82250000D02*
X154750000Y-82250000D01*
%TD*%
M02*
