M48
; DRILL file {KiCad 8.0.2} date 2024-05-04T20:25:49+0200
; FORMAT={-:-/ absolute / inch / decimal}
; #@! TF.CreationDate,2024-05-04T20:25:49+02:00
; #@! TF.GenerationSoftware,Kicad,Pcbnew,8.0.2
; #@! TF.FileFunction,Plated,1,2,PTH
FMAT,2
INCH
; #@! TA.AperFunction,Plated,PTH,ComponentDrill
T1C0.0315
; #@! TA.AperFunction,Plated,PTH,ComponentDrill
T2C0.0394
; #@! TA.AperFunction,Plated,PTH,ComponentDrill
T3C0.0551
%
G90
G05
T1
X6.1961Y-3.0315
X6.4961Y-3.0315
T2
X5.1146Y-3.1382
X5.1146Y-3.2382
X5.1146Y-3.3382
X5.1146Y-3.4382
X5.1146Y-3.5382
X5.1146Y-3.6382
X5.1146Y-3.7382
X5.1146Y-3.8382
X5.1146Y-3.9382
X5.1146Y-4.0382
X5.1146Y-4.1382
X5.1146Y-4.2382
X5.1146Y-4.3382
X5.1146Y-4.4382
X5.1146Y-4.5382
X6.0396Y-3.1382
X6.0396Y-3.2382
X6.0396Y-3.3382
X6.0396Y-3.4382
X6.0396Y-3.5382
X6.0396Y-3.6382
X6.0396Y-3.7382
X6.0396Y-3.8382
X6.0396Y-3.9382
X6.0396Y-4.0382
X6.0396Y-4.1382
X6.0396Y-4.2382
X6.0396Y-4.3382
X6.0396Y-4.4382
X6.0396Y-4.5382
T3
X6.3401Y-3.3394
X6.3401Y-3.5394
X6.3401Y-3.7394
X6.3409Y-4.0677
X6.3409Y-4.2677
X6.3409Y-4.4677
M30
