%TF.GenerationSoftware,KiCad,Pcbnew,8.0.3*%
%TF.CreationDate,2024-08-12T18:47:13+02:00*%
%TF.ProjectId,led-strip-connector,6c65642d-7374-4726-9970-2d636f6e6e65,rev?*%
%TF.SameCoordinates,Original*%
%TF.FileFunction,Copper,L1,Top*%
%TF.FilePolarity,Positive*%
%FSLAX46Y46*%
G04 Gerber Fmt 4.6, Leading zero omitted, Abs format (unit mm)*
G04 Created by KiCad (PCBNEW 8.0.3) date 2024-08-12 18:47:13*
%MOMM*%
%LPD*%
G01*
G04 APERTURE LIST*
G04 Aperture macros list*
%AMRoundRect*
0 Rectangle with rounded corners*
0 $1 Rounding radius*
0 $2 $3 $4 $5 $6 $7 $8 $9 X,Y pos of 4 corners*
0 Add a 4 corners polygon primitive as box body*
4,1,4,$2,$3,$4,$5,$6,$7,$8,$9,$2,$3,0*
0 Add four circle primitives for the rounded corners*
1,1,$1+$1,$2,$3*
1,1,$1+$1,$4,$5*
1,1,$1+$1,$6,$7*
1,1,$1+$1,$8,$9*
0 Add four rect primitives between the rounded corners*
20,1,$1+$1,$2,$3,$4,$5,0*
20,1,$1+$1,$4,$5,$6,$7,0*
20,1,$1+$1,$6,$7,$8,$9,0*
20,1,$1+$1,$8,$9,$2,$3,0*%
G04 Aperture macros list end*
%TA.AperFunction,SMDPad,CuDef*%
%ADD10RoundRect,0.250000X-0.475000X0.250000X-0.475000X-0.250000X0.475000X-0.250000X0.475000X0.250000X0*%
%TD*%
%TA.AperFunction,SMDPad,CuDef*%
%ADD11RoundRect,0.200000X-0.275000X0.200000X-0.275000X-0.200000X0.275000X-0.200000X0.275000X0.200000X0*%
%TD*%
%TA.AperFunction,SMDPad,CuDef*%
%ADD12RoundRect,0.200000X-0.200000X-0.275000X0.200000X-0.275000X0.200000X0.275000X-0.200000X0.275000X0*%
%TD*%
%TA.AperFunction,SMDPad,CuDef*%
%ADD13RoundRect,0.375000X-0.625000X-0.375000X0.625000X-0.375000X0.625000X0.375000X-0.625000X0.375000X0*%
%TD*%
%TA.AperFunction,SMDPad,CuDef*%
%ADD14RoundRect,0.500000X-0.500000X-1.400000X0.500000X-1.400000X0.500000X1.400000X-0.500000X1.400000X0*%
%TD*%
%TA.AperFunction,SMDPad,CuDef*%
%ADD15RoundRect,0.250000X0.475000X-0.250000X0.475000X0.250000X-0.475000X0.250000X-0.475000X-0.250000X0*%
%TD*%
%TA.AperFunction,ComponentPad*%
%ADD16RoundRect,0.250000X0.350000X0.625000X-0.350000X0.625000X-0.350000X-0.625000X0.350000X-0.625000X0*%
%TD*%
%TA.AperFunction,ComponentPad*%
%ADD17O,1.200000X1.750000*%
%TD*%
%TA.AperFunction,SMDPad,CuDef*%
%ADD18RoundRect,0.150000X-0.150000X0.825000X-0.150000X-0.825000X0.150000X-0.825000X0.150000X0.825000X0*%
%TD*%
%TA.AperFunction,SMDPad,CuDef*%
%ADD19RoundRect,0.225000X0.250000X-0.225000X0.250000X0.225000X-0.250000X0.225000X-0.250000X-0.225000X0*%
%TD*%
%TA.AperFunction,SMDPad,CuDef*%
%ADD20RoundRect,0.200000X0.275000X-0.200000X0.275000X0.200000X-0.275000X0.200000X-0.275000X-0.200000X0*%
%TD*%
%TA.AperFunction,SMDPad,CuDef*%
%ADD21R,1.000000X2.500000*%
%TD*%
%TA.AperFunction,SMDPad,CuDef*%
%ADD22R,1.800000X1.000000*%
%TD*%
%TA.AperFunction,SMDPad,CuDef*%
%ADD23RoundRect,0.200000X0.200000X0.275000X-0.200000X0.275000X-0.200000X-0.275000X0.200000X-0.275000X0*%
%TD*%
%TA.AperFunction,SMDPad,CuDef*%
%ADD24R,0.600000X1.450000*%
%TD*%
%TA.AperFunction,SMDPad,CuDef*%
%ADD25R,0.300000X1.450000*%
%TD*%
%TA.AperFunction,ComponentPad*%
%ADD26O,1.000000X2.100000*%
%TD*%
%TA.AperFunction,ComponentPad*%
%ADD27O,1.000000X1.600000*%
%TD*%
%TA.AperFunction,SMDPad,CuDef*%
%ADD28RoundRect,0.100000X-0.225000X-0.100000X0.225000X-0.100000X0.225000X0.100000X-0.225000X0.100000X0*%
%TD*%
%TA.AperFunction,SMDPad,CuDef*%
%ADD29RoundRect,0.225000X-0.225000X-0.250000X0.225000X-0.250000X0.225000X0.250000X-0.225000X0.250000X0*%
%TD*%
%TA.AperFunction,ViaPad*%
%ADD30C,0.600000*%
%TD*%
%TA.AperFunction,ViaPad*%
%ADD31C,1.000000*%
%TD*%
%TA.AperFunction,Conductor*%
%ADD32C,0.200000*%
%TD*%
%TA.AperFunction,Conductor*%
%ADD33C,0.600000*%
%TD*%
G04 APERTURE END LIST*
D10*
%TO.P,C4,1*%
%TO.N,+3V3*%
X154700000Y-114050000D03*
%TO.P,C4,2*%
%TO.N,GND*%
X154700000Y-115950000D03*
%TD*%
D11*
%TO.P,R2,1*%
%TO.N,Net-(U2-EN)*%
X158600000Y-109875000D03*
%TO.P,R2,2*%
%TO.N,+3V3*%
X158600000Y-111525000D03*
%TD*%
D12*
%TO.P,R1,1*%
%TO.N,Net-(U2-GPIO5)*%
X157875000Y-89200000D03*
%TO.P,R1,2*%
%TO.N,Net-(J1-Pin_2)*%
X159525000Y-89200000D03*
%TD*%
D13*
%TO.P,U3,1,GND*%
%TO.N,GND*%
X145850000Y-114500000D03*
%TO.P,U3,2,VO*%
%TO.N,+3V3*%
X145850000Y-116800000D03*
D14*
X152150000Y-116800000D03*
D13*
%TO.P,U3,3,VI*%
%TO.N,+5V*%
X145850000Y-119100000D03*
%TD*%
D15*
%TO.P,C3,1*%
%TO.N,+5V*%
X154700000Y-119650000D03*
%TO.P,C3,2*%
%TO.N,GND*%
X154700000Y-117750000D03*
%TD*%
D16*
%TO.P,J1,1,Pin_1*%
%TO.N,GND*%
X167100000Y-85950000D03*
D17*
%TO.P,J1,2,Pin_2*%
%TO.N,Net-(J1-Pin_2)*%
X165100000Y-85950000D03*
%TO.P,J1,3,Pin_3*%
%TO.N,+5V*%
X163100000Y-85950000D03*
%TD*%
D18*
%TO.P,U4,1,GND*%
%TO.N,GND*%
X155770000Y-82550000D03*
%TO.P,U4,2,TXD*%
%TO.N,RX*%
X154500000Y-82550000D03*
%TO.P,U4,3,RXD*%
%TO.N,TX*%
X153230000Y-82550000D03*
%TO.P,U4,4,V3*%
%TO.N,+3V3*%
X151960000Y-82550000D03*
%TO.P,U4,5,UD+*%
%TO.N,USBD+*%
X150690000Y-82550000D03*
%TO.P,U4,6,UD-*%
%TO.N,USBD-*%
X149420000Y-82550000D03*
%TO.P,U4,7,NC*%
%TO.N,unconnected-(U4-NC-Pad7)*%
X148150000Y-82550000D03*
%TO.P,U4,8,NC*%
%TO.N,unconnected-(U4-NC-Pad8)*%
X146880000Y-82550000D03*
%TO.P,U4,9,~{CTS}*%
%TO.N,unconnected-(U4-~{CTS}-Pad9)*%
X146880000Y-87500000D03*
%TO.P,U4,10,~{DSR}*%
%TO.N,unconnected-(U4-~{DSR}-Pad10)*%
X148150000Y-87500000D03*
%TO.P,U4,11,~{RI}*%
%TO.N,unconnected-(U4-~{RI}-Pad11)*%
X149420000Y-87500000D03*
%TO.P,U4,12,~{DCD}*%
%TO.N,unconnected-(U4-~{DCD}-Pad12)*%
X150690000Y-87500000D03*
%TO.P,U4,13,~{DTR}*%
%TO.N,DTR*%
X151960000Y-87500000D03*
%TO.P,U4,14,~{RTS}*%
%TO.N,RTS*%
X153230000Y-87500000D03*
%TO.P,U4,15,R232*%
%TO.N,unconnected-(U4-R232-Pad15)*%
X154500000Y-87500000D03*
%TO.P,U4,16,VCC*%
%TO.N,+3V3*%
X155770000Y-87500000D03*
%TD*%
D12*
%TO.P,R5,1*%
%TO.N,Net-(USB1-CC1)*%
X161700000Y-110100000D03*
%TO.P,R5,2*%
%TO.N,GND*%
X163350000Y-110100000D03*
%TD*%
D19*
%TO.P,C2,1*%
%TO.N,GND*%
X168800000Y-111075000D03*
%TO.P,C2,2*%
%TO.N,+3V3*%
X168800000Y-109525000D03*
%TD*%
D20*
%TO.P,R3,1*%
%TO.N,+3V3*%
X152700000Y-111525000D03*
%TO.P,R3,2*%
%TO.N,Net-(Q1A-C1)*%
X152700000Y-109875000D03*
%TD*%
D21*
%TO.P,U2,1,~{RST}*%
%TO.N,Net-(Q1A-C1)*%
X153000000Y-107000000D03*
%TO.P,U2,2,ADC*%
%TO.N,unconnected-(U2-ADC-Pad2)*%
X155000000Y-107000000D03*
%TO.P,U2,3,EN*%
%TO.N,Net-(U2-EN)*%
X157000000Y-107000000D03*
%TO.P,U2,4,GPIO16*%
%TO.N,unconnected-(U2-GPIO16-Pad4)*%
X159000000Y-107000000D03*
%TO.P,U2,5,GPIO14*%
%TO.N,unconnected-(U2-GPIO14-Pad5)*%
X161000000Y-107000000D03*
%TO.P,U2,6,GPIO12*%
%TO.N,unconnected-(U2-GPIO12-Pad6)*%
X163000000Y-107000000D03*
%TO.P,U2,7,GPIO13*%
%TO.N,unconnected-(U2-GPIO13-Pad7)*%
X165000000Y-107000000D03*
%TO.P,U2,8,VCC*%
%TO.N,+3V3*%
X167000000Y-107000000D03*
D22*
%TO.P,U2,9,CS0*%
%TO.N,unconnected-(U2-CS0-Pad9)*%
X168500000Y-104400000D03*
%TO.P,U2,10,MISO*%
%TO.N,unconnected-(U2-MISO-Pad10)*%
X168500000Y-102400000D03*
%TO.P,U2,11,GPIO9*%
%TO.N,unconnected-(U2-GPIO9-Pad11)*%
X168500000Y-100400000D03*
%TO.P,U2,12,GPIO10*%
%TO.N,unconnected-(U2-GPIO10-Pad12)*%
X168500000Y-98400000D03*
%TO.P,U2,13,MOSI*%
%TO.N,unconnected-(U2-MOSI-Pad13)*%
X168500000Y-96400000D03*
%TO.P,U2,14,SCLK*%
%TO.N,unconnected-(U2-SCLK-Pad14)*%
X168500000Y-94400000D03*
D21*
%TO.P,U2,15,GND*%
%TO.N,GND*%
X167000000Y-91800000D03*
%TO.P,U2,16,GPIO15*%
X165000000Y-91800000D03*
%TO.P,U2,17,GPIO2*%
%TO.N,unconnected-(U2-GPIO2-Pad17)*%
X163000000Y-91800000D03*
%TO.P,U2,18,GPIO0*%
%TO.N,Net-(Q1B-C2)*%
X161000000Y-91800000D03*
%TO.P,U2,19,GPIO4*%
%TO.N,unconnected-(U2-GPIO4-Pad19)*%
X159000000Y-91800000D03*
%TO.P,U2,20,GPIO5*%
%TO.N,Net-(U2-GPIO5)*%
X157000000Y-91800000D03*
%TO.P,U2,21,GPIO3/RXD*%
%TO.N,RX*%
X155000000Y-91800000D03*
%TO.P,U2,22,GPIO1/TXD*%
%TO.N,TX*%
X153000000Y-91800000D03*
%TD*%
D23*
%TO.P,R4,1*%
%TO.N,Net-(USB1-CC2)*%
X166325000Y-110100000D03*
%TO.P,R4,2*%
%TO.N,GND*%
X164675000Y-110100000D03*
%TD*%
D24*
%TO.P,USB1,A1,GND*%
%TO.N,GND*%
X160850000Y-113355000D03*
%TO.P,USB1,A4,VBUS*%
%TO.N,+5V*%
X161650000Y-113355000D03*
D25*
%TO.P,USB1,A5,CC1*%
%TO.N,Net-(USB1-CC1)*%
X162850000Y-113355000D03*
%TO.P,USB1,A6,D+*%
%TO.N,USBD+*%
X163850000Y-113355000D03*
%TO.P,USB1,A7,D-*%
%TO.N,USBD-*%
X164350000Y-113355000D03*
%TO.P,USB1,A8*%
%TO.N,N/C*%
X165350000Y-113355000D03*
D24*
%TO.P,USB1,A9,VBUS*%
%TO.N,+5V*%
X166550000Y-113355000D03*
%TO.P,USB1,A12,GND*%
%TO.N,GND*%
X167350000Y-113355000D03*
%TO.P,USB1,B1,GND*%
X167350000Y-113355000D03*
%TO.P,USB1,B4,VBUS*%
%TO.N,+5V*%
X166550000Y-113355000D03*
D25*
%TO.P,USB1,B5,CC2*%
%TO.N,Net-(USB1-CC2)*%
X165850000Y-113355000D03*
%TO.P,USB1,B6,D+*%
%TO.N,USBD+*%
X164850000Y-113355000D03*
%TO.P,USB1,B7,D-*%
%TO.N,USBD-*%
X163350000Y-113355000D03*
%TO.P,USB1,B8*%
%TO.N,N/C*%
X162350000Y-113355000D03*
D24*
%TO.P,USB1,B9,VBUS*%
%TO.N,+5V*%
X161650000Y-113355000D03*
%TO.P,USB1,B12,GND*%
%TO.N,GND*%
X160850000Y-113355000D03*
D26*
%TO.P,USB1,S1,SHIELD*%
X159780000Y-114270000D03*
D27*
X159780000Y-118450000D03*
D26*
X168420000Y-114270000D03*
D27*
X168420000Y-118450000D03*
%TD*%
D28*
%TO.P,Q1,1,E1*%
%TO.N,RTS*%
X154850000Y-110050000D03*
%TO.P,Q1,2,B1*%
%TO.N,DTR*%
X154850000Y-110700000D03*
%TO.P,Q1,3,C2*%
%TO.N,Net-(Q1B-C2)*%
X154850000Y-111350000D03*
%TO.P,Q1,4,E2*%
%TO.N,DTR*%
X156750000Y-111350000D03*
%TO.P,Q1,5,B2*%
%TO.N,RTS*%
X156750000Y-110700000D03*
%TO.P,Q1,6,C1*%
%TO.N,Net-(Q1A-C1)*%
X156750000Y-110050000D03*
%TD*%
D29*
%TO.P,C1,1*%
%TO.N,+3V3*%
X157925000Y-87500000D03*
%TO.P,C1,2*%
%TO.N,GND*%
X159475000Y-87500000D03*
%TD*%
D30*
%TO.N,GND*%
X156600200Y-83119100D03*
X165000000Y-90031700D03*
X145850000Y-113227000D03*
X167811000Y-110945000D03*
X155606000Y-115044000D03*
X167345000Y-90031700D03*
X165500000Y-109152000D03*
X159475000Y-86513400D03*
D31*
%TO.N,+5V*%
X162410000Y-111500000D03*
D30*
%TO.N,Net-(Q1B-C2)*%
X161012000Y-105234000D03*
X155843000Y-111764000D03*
%TO.N,Net-(USB1-CC1)*%
X162500000Y-115000000D03*
X160400000Y-110700000D03*
%TO.N,USBD+*%
X164400000Y-111900000D03*
X164500000Y-88500000D03*
%TD*%
D32*
%TO.N,GND*%
X165000000Y-91800000D02*
X165000000Y-90031700D01*
X164675000Y-110100000D02*
X163350000Y-110100000D01*
D33*
X160850000Y-113355000D02*
X160850000Y-113550000D01*
X160130000Y-114270000D02*
X159780000Y-114270000D01*
D32*
X167000000Y-91800000D02*
X167000000Y-90376700D01*
D33*
X145850000Y-113227000D02*
X145850000Y-114500000D01*
D32*
X156250000Y-82550000D02*
X155770000Y-82550000D01*
D33*
X160850000Y-113550000D02*
X160130000Y-114270000D01*
D32*
X167000000Y-90376700D02*
X167345000Y-90031700D01*
X168800000Y-111075000D02*
X168670000Y-110945000D01*
X168670000Y-110945000D02*
X167811000Y-110945000D01*
X155606000Y-115044000D02*
X154700000Y-115950000D01*
X156600200Y-82900200D02*
X156250000Y-82550000D01*
X154700000Y-115950000D02*
X154700000Y-117750000D01*
X165500000Y-109152000D02*
X165500000Y-109275000D01*
X165500000Y-109275000D02*
X164675000Y-110100000D01*
D33*
X167350000Y-113355000D02*
X167350000Y-113550000D01*
X168070000Y-114270000D02*
X168420000Y-114270000D01*
X167350000Y-113550000D02*
X168070000Y-114270000D01*
D32*
X156600200Y-83119100D02*
X156600200Y-82900200D01*
X159475000Y-86513400D02*
X159475000Y-87500000D01*
%TO.N,Net-(J1-Pin_2)*%
X165050000Y-85950000D02*
X165100000Y-85950000D01*
X161704800Y-89295200D02*
X165050000Y-85950000D01*
X159620000Y-89295200D02*
X161704800Y-89295200D01*
X159525000Y-89200000D02*
X159620000Y-89295200D01*
D33*
%TO.N,+5V*%
X154700000Y-119650000D02*
X146400000Y-119650000D01*
X160200000Y-111500000D02*
X156800000Y-114900000D01*
X161650000Y-113355000D02*
X161650000Y-112260000D01*
X156800000Y-114900000D02*
X156800000Y-117550000D01*
X162810000Y-111100000D02*
X162410000Y-111500000D01*
X161650000Y-112260000D02*
X160890000Y-111500000D01*
X161600000Y-111500000D02*
X161300000Y-111500000D01*
X160890000Y-111500000D02*
X160800000Y-111500000D01*
X162005000Y-111905000D02*
X162410000Y-111500000D01*
X166550000Y-111950000D02*
X165700000Y-111100000D01*
X162005000Y-111905000D02*
X161600000Y-111500000D01*
X161650000Y-112260000D02*
X162005000Y-111905000D01*
X161300000Y-111500000D02*
X160800000Y-111500000D01*
X146400000Y-119650000D02*
X145850000Y-119100000D01*
X166550000Y-113355000D02*
X166550000Y-111950000D01*
X160800000Y-111500000D02*
X160200000Y-111500000D01*
X165700000Y-111100000D02*
X162810000Y-111100000D01*
X162410000Y-111500000D02*
X161300000Y-111500000D01*
X156800000Y-117550000D02*
X154700000Y-119650000D01*
D32*
%TO.N,+3V3*%
X152150000Y-116600000D02*
X152150000Y-116800000D01*
X154700000Y-114050000D02*
X152150000Y-116600000D01*
X156198000Y-87500000D02*
X157925000Y-87500000D01*
X154806500Y-81231900D02*
X155135000Y-81560400D01*
X154700000Y-114050000D02*
X154700000Y-113400000D01*
X167000000Y-107000000D02*
X167000000Y-108552000D01*
X151960000Y-82550000D02*
X151960000Y-81440000D01*
X160375000Y-108552000D02*
X160375000Y-109750000D01*
X152168100Y-81231900D02*
X154806500Y-81231900D01*
X167827000Y-108552000D02*
X167000000Y-108552000D01*
X156198000Y-87500000D02*
X155770000Y-87500000D01*
X156200000Y-93176500D02*
X156198000Y-93175000D01*
X151960000Y-81440000D02*
X152168100Y-81231900D01*
X155135000Y-81560400D02*
X155135000Y-86865000D01*
X168800000Y-109525000D02*
X167827000Y-108552000D01*
X160375000Y-108552000D02*
X160198000Y-108375000D01*
X152825000Y-111525000D02*
X152700000Y-111525000D01*
X154700000Y-113400000D02*
X152825000Y-111525000D01*
X156200000Y-95069900D02*
X156200000Y-93176500D01*
X160198000Y-108375000D02*
X160198000Y-99068800D01*
X160375000Y-109750000D02*
X158600000Y-111525000D01*
X160198000Y-99068800D02*
X156200000Y-95069900D01*
X152150000Y-116800000D02*
X145850000Y-116800000D01*
X155135000Y-86865000D02*
X155770000Y-87500000D01*
X156198000Y-87500000D02*
X156198000Y-93175000D01*
X156075000Y-114050000D02*
X154700000Y-114050000D01*
X167000000Y-108552000D02*
X160375000Y-108552000D01*
X158600000Y-111525000D02*
X156075000Y-114050000D01*
%TO.N,RTS*%
X156750000Y-110700000D02*
X156452000Y-110700000D01*
X154142000Y-90706800D02*
X153230000Y-89794800D01*
X153230000Y-89794800D02*
X153230000Y-87500000D01*
X154142000Y-95014900D02*
X154142000Y-90706800D01*
X155707000Y-109956000D02*
X155802000Y-109861000D01*
X155802000Y-109861000D02*
X155802000Y-96675000D01*
X155802000Y-96675000D02*
X154142000Y-95014900D01*
X156452000Y-110700000D02*
X155707000Y-109956000D01*
X154850000Y-110050000D02*
X155613000Y-110050000D01*
X155613000Y-110050000D02*
X155707000Y-109956000D01*
%TO.N,Net-(Q1B-C2)*%
X155264000Y-111764000D02*
X155843000Y-111764000D01*
X161012000Y-93364000D02*
X161012000Y-105234000D01*
X154850000Y-111350000D02*
X155264000Y-111764000D01*
X161000000Y-91800000D02*
X161000000Y-93351700D01*
X161000000Y-93351700D02*
X161012000Y-93364000D01*
%TO.N,DTR*%
X153814000Y-96692400D02*
X153814000Y-109907000D01*
X156234000Y-111304000D02*
X155630000Y-110700000D01*
X156750000Y-111350000D02*
X156704000Y-111304000D01*
X151960000Y-94838400D02*
X153814000Y-96692400D01*
X153814000Y-109907000D02*
X154606000Y-110700000D01*
X155630000Y-110700000D02*
X154850000Y-110700000D01*
X156704000Y-111304000D02*
X156234000Y-111304000D01*
X151960000Y-87500000D02*
X151960000Y-94838400D01*
X154606000Y-110700000D02*
X154850000Y-110700000D01*
%TO.N,Net-(Q1A-C1)*%
X157409000Y-111617000D02*
X156647000Y-112380000D01*
X152775000Y-110185000D02*
X152775000Y-109875000D01*
X153000000Y-107000000D02*
X153000000Y-108552000D01*
X152775000Y-109875000D02*
X152700000Y-109875000D01*
X157409000Y-110422000D02*
X157409000Y-111617000D01*
X154969000Y-112380000D02*
X152775000Y-110185000D01*
X156647000Y-112380000D02*
X154969000Y-112380000D01*
X153000000Y-108552000D02*
X152775000Y-108777000D01*
X152775000Y-108777000D02*
X152775000Y-109875000D01*
X157037000Y-110050000D02*
X157409000Y-110422000D01*
X156750000Y-110050000D02*
X157037000Y-110050000D01*
%TO.N,Net-(U2-GPIO5)*%
X157000000Y-91800000D02*
X157000000Y-90248300D01*
X157875000Y-89373300D02*
X157875000Y-89200000D01*
X157000000Y-90248300D02*
X157875000Y-89373300D01*
%TO.N,Net-(U2-EN)*%
X158327000Y-109875000D02*
X158600000Y-109875000D01*
X157000000Y-107000000D02*
X157000000Y-108548000D01*
X157000000Y-108548000D02*
X158327000Y-109875000D01*
%TO.N,Net-(USB1-CC2)*%
X168799371Y-115700000D02*
X166700000Y-115700000D01*
X169400000Y-113444000D02*
X169400000Y-115099371D01*
X166325000Y-110369000D02*
X169400000Y-113444000D01*
X169400000Y-115099371D02*
X168799371Y-115700000D01*
X166700000Y-115700000D02*
X165850000Y-114850000D01*
X165850000Y-114850000D02*
X165850000Y-113355000D01*
X166325000Y-110100000D02*
X166325000Y-110369000D01*
%TO.N,Net-(USB1-CC1)*%
X162500000Y-115000000D02*
X162860000Y-114640000D01*
X160400000Y-110700000D02*
X161100000Y-110700000D01*
X162860000Y-114640000D02*
X162860000Y-113620000D01*
X161100000Y-110700000D02*
X161700000Y-110100000D01*
%TO.N,TX*%
X153000000Y-91800000D02*
X153000000Y-92576700D01*
X153000000Y-92576700D02*
X152595000Y-92171700D01*
X153230000Y-83770000D02*
X153230000Y-82550000D01*
X152595000Y-92171700D02*
X152595000Y-84405000D01*
X152595000Y-84405000D02*
X153230000Y-83770000D01*
%TO.N,USBD-*%
X169200000Y-116200000D02*
X170000000Y-115400000D01*
X167500000Y-80000000D02*
X150497500Y-80000000D01*
X170000000Y-115400000D02*
X170000000Y-82500000D01*
X165797410Y-116200000D02*
X169200000Y-116200000D01*
X149420000Y-81077500D02*
X149420000Y-82550000D01*
X164092410Y-114495000D02*
X165797410Y-116200000D01*
X163360000Y-114360000D02*
X163495000Y-114495000D01*
X163495000Y-114495000D02*
X164092410Y-114495000D01*
X163360000Y-113620000D02*
X163360000Y-114360000D01*
X164092410Y-114495000D02*
X164205000Y-114495000D01*
X164205000Y-114495000D02*
X164360000Y-114340000D01*
X164360000Y-114340000D02*
X164360000Y-113620000D01*
X150497500Y-80000000D02*
X149420000Y-81077500D01*
X170000000Y-82500000D02*
X167500000Y-80000000D01*
%TO.N,RX*%
X153865000Y-89065000D02*
X153865000Y-84647500D01*
X155000000Y-90200000D02*
X153865000Y-89065000D01*
X154500000Y-84012500D02*
X154500000Y-82550000D01*
X155000000Y-91800000D02*
X155000000Y-90200000D01*
X153865000Y-84647500D02*
X154500000Y-84012500D01*
%TO.N,USBD+*%
X169500000Y-84500000D02*
X168500000Y-83500000D01*
X168000000Y-83500000D02*
X165331900Y-80831900D01*
X150690000Y-81310000D02*
X150690000Y-82550000D01*
X169500000Y-87500000D02*
X169500000Y-84500000D01*
X164850000Y-112350000D02*
X164850000Y-113355000D01*
X169000000Y-88000000D02*
X169500000Y-87500000D01*
X164400000Y-111900000D02*
X164850000Y-112350000D01*
X164500000Y-88500000D02*
X165000000Y-88000000D01*
X164400000Y-111900000D02*
X163850000Y-112450000D01*
X151168100Y-80831900D02*
X150690000Y-81310000D01*
X163850000Y-112450000D02*
X163850000Y-113355000D01*
X168500000Y-83500000D02*
X168000000Y-83500000D01*
X165331900Y-80831900D02*
X151168100Y-80831900D01*
X165000000Y-88000000D02*
X169000000Y-88000000D01*
%TD*%
M02*
