M48
; DRILL file {KiCad 8.0.3} date 2024-08-12T18:47:10+0200
; FORMAT={-:-/ absolute / inch / decimal}
; #@! TF.CreationDate,2024-08-12T18:47:10+02:00
; #@! TF.GenerationSoftware,Kicad,Pcbnew,8.0.3
; #@! TF.FileFunction,Plated,1,2,PTH
FMAT,2
INCH
; #@! TA.AperFunction,Plated,PTH,ViaDrill
T1C0.0118
; #@! TA.AperFunction,Plated,PTH,ViaDrill
T2C0.0197
; #@! TA.AperFunction,Plated,PTH,ComponentDrill
T3C0.0236
; #@! TA.AperFunction,Plated,PTH,ComponentDrill
T4C0.0295
%
G90
G05
T1
X5.7421Y-4.4578
X6.1262Y-4.5293
X6.1356Y-4.4002
X6.1654Y-3.2724
X6.2785Y-3.406
X6.315Y-4.3583
X6.3391Y-4.1431
X6.3976Y-4.5276
X6.4724Y-4.4055
X6.4764Y-3.4843
X6.4961Y-3.5446
X6.5157Y-4.2973
X6.5884Y-3.5446
X6.6067Y-4.3679
T2
X6.3941Y-4.3898
T4
X6.4213Y-3.3839
X6.5Y-3.3839
X6.5787Y-3.3839
T3
G00X6.2906Y-4.4772
M15
G01X6.2906Y-4.5205
M16
G05
G00X6.2906Y-4.6516
M15
G01X6.2906Y-4.6752
M16
G05
G00X6.6307Y-4.4772
M15
G01X6.6307Y-4.5205
M16
G05
G00X6.6307Y-4.6516
M15
G01X6.6307Y-4.6752
M16
G05
M30
